<?xml version="1.0" encoding="UTF-8"?> <!-- Creator: CorelDRAW 2017 --> <svg xmlns="http://www.w3.org/2000/svg" xmlns:xlink="http://www.w3.org/1999/xlink" xml:space="preserve" width="711px" height="474px" style="shape-rendering:geometricPrecision; text-rendering:geometricPrecision; image-rendering:optimizeQuality; fill-rule:evenodd; clip-rule:evenodd" viewBox="0 0 711 474"> <defs> <style type="text/css"> <![CDATA[ .fil1 {fill:whitesmoke} .fil6 {fill:#191919} .fil11 {fill:#A0BD27} .fil7 {fill:#BD2381} .fil9 {fill:#CBB3D6} .fil10 {fill:#FBDF00} .fil8 {fill:white} .fil2 {fill:#191919;fill-rule:nonzero} .fil3 {fill:#838BC5;fill-rule:nonzero} .fil4 {fill:#CBB3D6;fill-rule:nonzero} .fil0 {fill:#FBDF00;fill-rule:nonzero} .fil5 {fill:white;fill-rule:nonzero} ]]> </style> </defs> <g id="Слой_x0020_1"> <metadata id="CorelCorpID_0Corel-Layer"></metadata> <polygon class="fil0" points="151.16,177.82 146,172.66 166.2,152.45 171.36,157.61 "></polygon> <polygon class="fil0" points="166.2,177.82 146,157.61 151.16,152.45 171.36,172.66 "></polygon> <path class="fil1" d="M170 285.65c-37.94,76.92 26.8,122.69 86.05,136.79 59.26,14.1 280.15,16.04 315.49,-139.51 18.22,-80.18 -1.15,-220.14 -80.42,-226.81 -79.27,-6.68 -101.7,125.3 -156.78,147.85 -55.07,22.54 -135.86,23.96 -164.34,81.68z"></path> <path class="fil2" d="M159.91 284.74c-1.15,-0.45 -1.74,-1.79 -1.26,-2.97 0.52,-1.15 1.87,-1.68 3,-1.18 1.14,0.5 1.65,1.81 1.15,2.92 -0.47,1.12 -1.73,1.68 -2.89,1.23z"></path> <path class="fil2" d="M156.65 294.08c-1.19,-0.36 -1.85,-1.63 -1.47,-2.84 0.37,-1.22 1.62,-1.87 2.81,-1.46 1.15,0.41 1.82,1.68 1.46,2.84 -0.36,1.16 -1.61,1.81 -2.8,1.46z"></path> <path class="fil2" d="M154.18 303.66c-1.22,-0.24 -1.97,-1.43 -1.67,-2.68 0.29,-1.24 1.5,-2 2.71,-1.7 1.2,0.3 1.95,1.5 1.67,2.68 -0.28,1.18 -1.49,1.94 -2.71,1.7z"></path> <path class="fil2" d="M152.84 313.46c-1.24,-0.1 -2.15,-1.21 -2.04,-2.49 0.08,-1.28 1.31,-2.15 2.52,-1.98 1.25,0.18 2.01,1.28 1.94,2.48 -0.1,1.2 -1.19,2.09 -2.42,1.99z"></path> <path class="fil2" d="M152.54 323.35c-1.26,0.05 -2.31,-0.95 -2.27,-2.23 0.01,-1.29 1.03,-2.3 2.27,-2.27 1.24,0.03 2.24,1.03 2.23,2.23 -0.04,1.2 -1.01,2.22 -2.23,2.27z"></path> <path class="fil2" d="M153.55 333.19c-1.22,0.21 -2.37,-0.65 -2.55,-1.92 -0.19,-1.28 0.67,-2.41 1.9,-2.54 1.24,-0.12 2.38,0.74 2.55,1.93 0.18,1.18 -0.68,2.32 -1.9,2.53z"></path> <path class="fil2" d="M155.85 342.8c-1.18,0.38 -2.45,-0.32 -2.83,-1.55 -0.37,-1.23 0.44,-2.49 1.62,-2.78 1.23,-0.29 2.36,0.44 2.71,1.58 0.36,1.15 -0.31,2.38 -1.5,2.75z"></path> <path class="fil2" d="M159.39 352.04c-1.1,0.51 -2.55,0.04 -3,-1.17 -0.47,-1.2 0.09,-2.53 1.24,-2.97 1.16,-0.45 2.46,0.09 2.9,1.21 0.41,1.12 0,2.39 -1.14,2.93z"></path> <path class="fil2" d="M164.06 360.76c-1.07,0.67 -2.43,0.29 -3.07,-0.81 -0.64,-1.12 -0.27,-2.5 0.82,-3.09 1.09,-0.59 2.46,-0.23 3.06,0.82 0.6,1.04 0.22,2.43 -0.81,3.08z"></path> <path class="fil2" d="M169.78 368.83c-0.97,0.77 -2.39,0.58 -3.16,-0.44 -0.78,-1.02 -0.59,-2.42 0.43,-3.14 1.01,-0.71 2.43,-0.52 3.16,0.44 0.73,0.96 0.54,2.36 -0.43,3.14z"></path> <path class="fil2" d="M176.32 376.25c-0.88,0.87 -2.32,0.83 -3.21,-0.09 -0.9,-0.9 -0.77,-2.39 0.15,-3.2 0.94,-0.83 2.29,-0.71 3.14,0.14 0.85,0.87 0.81,2.28 -0.08,3.15z"></path> <path class="fil2" d="M183.54 383.02c-0.8,0.93 -2.27,1.08 -3.2,0.2 -0.93,-0.86 -1,-2.3 -0.16,-3.2 0.86,-0.91 2.26,-0.97 3.15,-0.15 0.88,0.83 1.02,2.19 0.21,3.15z"></path> <path class="fil2" d="M191.3 389.16c-0.73,1.01 -2.14,1.21 -3.15,0.44 -1.01,-0.77 -1.21,-2.18 -0.44,-3.16 0.77,-0.97 2.18,-1.17 3.15,-0.43 0.96,0.74 1.16,2.15 0.44,3.15z"></path> <path class="fil2" d="M199.52 394.66c-0.65,1.06 -2.05,1.37 -3.12,0.69 -1.08,-0.66 -1.36,-2.07 -0.67,-3.11 0.69,-1.02 2.06,-1.3 3.11,-0.67 1.03,0.65 1.34,2.04 0.68,3.09z"></path> <path class="fil2" d="M208.1 399.61c-0.58,1.09 -1.97,1.52 -3.08,0.91 -1.09,-0.64 -1.48,-2.02 -0.86,-3.09 0.62,-1.08 1.98,-1.46 3.04,-0.85 1.07,0.59 1.48,1.92 0.9,3.03z"></path> <path class="fil2" d="M216.96 404.02c-0.52,1.13 -1.86,1.6 -3,1.06 -1.14,-0.55 -1.61,-1.89 -1.06,-3 0.55,-1.12 1.89,-1.59 2.99,-1.06 1.11,0.53 1.58,1.87 1.07,3z"></path> <path class="fil2" d="M226.07 407.88c-0.45,1.15 -1.77,1.71 -2.94,1.25 -1.17,-0.46 -1.72,-1.79 -1.23,-2.94 0.48,-1.14 1.79,-1.67 2.93,-1.23 1.14,0.46 1.69,1.76 1.24,2.92z"></path> <path class="fil2" d="M235.38 411.25c-0.39,1.17 -1.68,1.83 -2.87,1.41 -1.19,-0.42 -1.81,-1.72 -1.38,-2.89 0.42,-1.16 1.69,-1.77 2.85,-1.36 1.15,0.41 1.79,1.65 1.4,2.84z"></path> <path class="fil2" d="M244.84 414.14c-0.32,1.19 -1.57,1.88 -2.78,1.53 -1.21,-0.35 -1.9,-1.6 -1.54,-2.79 0.36,-1.19 1.61,-1.87 2.78,-1.53 1.18,0.34 1.87,1.59 1.54,2.79z"></path> <path class="fil2" d="M254.47 416.45c-0.26,1.22 -1.46,1.99 -2.7,1.72 -1.24,-0.26 -2,-1.47 -1.7,-2.69 0.3,-1.19 1.5,-1.94 2.69,-1.69 1.2,0.25 1.96,1.45 1.71,2.66z"></path> <path class="fil2" d="M264.21 418.21c-0.19,1.23 -1.35,2.08 -2.59,1.86 -1.24,-0.22 -2.07,-1.38 -1.85,-2.61 0.22,-1.22 1.37,-2.04 2.58,-1.83 1.2,0.22 2.04,1.36 1.86,2.58z"></path> <path class="fil2" d="M274.02 419.49c-0.14,1.23 -1.26,2.12 -2.51,1.99 -1.24,-0.14 -2.12,-1.3 -1.96,-2.53 0.17,-1.24 1.28,-2.07 2.51,-1.93 1.22,0.13 2.1,1.24 1.96,2.47z"></path> <path class="fil2" d="M283.87 420.44c-0.1,1.24 -1.19,2.16 -2.44,2.06 -1.25,-0.09 -2.16,-1.18 -2.04,-2.43 0.12,-1.23 1.21,-2.14 2.44,-2.04 1.23,0.09 2.14,1.18 2.04,2.41z"></path> <path class="fil2" d="M293.75 421.11c-0.07,1.24 -1.14,2.19 -2.38,2.13 -1.25,-0.07 -2.2,-1.13 -2.11,-2.37 0.08,-1.24 1.14,-2.19 2.38,-2.12 1.23,0.07 2.17,1.13 2.11,2.36z"></path> <path class="fil2" d="M303.64 421.53c-0.04,1.24 -1.08,2.22 -2.33,2.18 -1.25,-0.03 -2.22,-1.07 -2.17,-2.31 0.05,-1.24 1.09,-2.22 2.33,-2.18 1.23,0.03 2.2,1.07 2.17,2.31z"></path> <path class="fil2" d="M313.54 421.71c-0.01,1.24 -1.03,2.24 -2.28,2.24 -1.25,-0.01 -2.25,-1.02 -2.22,-2.27 0.02,-1.23 1.04,-2.23 2.27,-2.23 1.24,0 2.23,1.01 2.23,2.26z"></path> <path class="fil2" d="M323.43 421.66c0.03,1.23 -0.97,2.26 -2.22,2.29 -1.25,0.04 -2.27,-1 -2.28,-2.23 0,-1.25 0.99,-2.22 2.23,-2.26 1.23,-0.03 2.25,0.95 2.27,2.2z"></path> <path class="fil2" d="M333.33 421.39c0.05,1.23 -0.92,2.31 -2.17,2.34 -1.25,0.03 -2.29,-0.96 -2.33,-2.2 -0.03,-1.24 0.94,-2.27 2.17,-2.3 1.24,-0.02 2.28,0.91 2.33,2.16z"></path> <path class="fil2" d="M343.22 420.9c0.07,1.24 -0.88,2.3 -2.12,2.36 -1.25,0.06 -2.32,-0.9 -2.38,-2.14 -0.06,-1.24 0.89,-2.29 2.12,-2.35 1.24,-0.06 2.3,0.89 2.38,2.13z"></path> <path class="fil2" d="M353.09 420.15c0.1,1.24 -0.82,2.32 -2.07,2.42 -1.24,0.09 -2.33,-0.83 -2.42,-2.07 -0.09,-1.24 0.83,-2.32 2.07,-2.41 1.23,-0.1 2.31,0.83 2.42,2.06z"></path> <path class="fil2" d="M362.94 419.19c0.13,1.23 -0.76,2.34 -2.01,2.47 -1.24,0.13 -2.35,-0.76 -2.47,-2 -0.12,-1.23 0.78,-2.34 2.01,-2.47 1.23,-0.13 2.33,0.77 2.47,2z"></path> <path class="fil2" d="M372.76 418.01c0.17,1.23 -0.7,2.36 -1.94,2.53 -1.24,0.17 -2.37,-0.69 -2.51,-1.93 -0.15,-1.23 0.72,-2.36 1.94,-2.53 1.23,-0.16 2.35,0.7 2.51,1.93z"></path> <path class="fil2" d="M382.56 416.61c0.2,1.23 -0.64,2.39 -1.88,2.6 -1.24,0.16 -2.39,-0.69 -2.56,-1.93 -0.18,-1.22 0.67,-2.35 1.89,-2.52 1.22,-0.2 2.36,0.62 2.55,1.85z"></path> <path class="fil2" d="M392.33 414.97c0.22,1.22 -0.6,2.38 -1.83,2.59 -1.23,0.21 -2.4,-0.62 -2.61,-1.84 -0.21,-1.23 0.61,-2.38 1.83,-2.59 1.21,-0.2 2.38,0.62 2.61,1.84z"></path> <path class="fil2" d="M402.03 413.03c0.26,1.21 -0.53,2.4 -1.75,2.65 -1.23,0.24 -2.42,-0.54 -2.66,-1.76 -0.24,-1.22 0.55,-2.4 1.76,-2.65 1.21,-0.24 2.39,0.54 2.65,1.76z"></path> <path class="fil2" d="M411.69 410.84c0.29,1.21 -0.46,2.42 -1.68,2.72 -1.22,0.29 -2.43,-0.45 -2.7,-1.67 -0.27,-1.21 0.48,-2.42 1.68,-2.71 1.2,-0.29 2.4,0.45 2.7,1.66z"></path> <path class="fil2" d="M421.28 408.41c0.33,1.2 -0.39,2.44 -1.59,2.78 -1.21,0.35 -2.45,-0.43 -2.75,-1.62 -0.32,-1.21 0.42,-2.38 1.6,-2.72 1.19,-0.34 2.41,0.36 2.74,1.56z"></path> <path class="fil2" d="M430.81 405.71c0.36,1.19 -0.32,2.43 -1.53,2.77 -1.21,0.34 -2.46,-0.35 -2.8,-1.54 -0.35,-1.19 0.33,-2.44 1.52,-2.77 1.19,-0.33 2.44,0.36 2.81,1.54z"></path> <path class="fil2" d="M440.21 402.63c0.4,1.17 -0.24,2.44 -1.43,2.84 -1.19,0.39 -2.46,-0.25 -2.84,-1.44 -0.38,-1.17 0.26,-2.45 1.43,-2.83 1.17,-0.38 2.44,0.26 2.84,1.43z"></path> <path class="fil2" d="M449.52 399.26c0.44,1.16 -0.15,2.47 -1.32,2.91 -1.18,0.45 -2.47,-0.14 -2.89,-1.31 -0.42,-1.17 0.17,-2.47 1.32,-2.9 1.15,-0.44 2.45,0.14 2.89,1.3z"></path> <path class="fil2" d="M458.71 395.6c0.49,1.15 -0.05,2.48 -1.2,2.98 -1.14,0.53 -2.49,-0.1 -2.94,-1.23 -0.47,-1.17 0.11,-2.41 1.22,-2.92 1.13,-0.5 2.44,0.03 2.92,1.17z"></path> <path class="fil2" d="M467.78 391.64c0.53,1.12 0.03,2.44 -1.12,2.94 -1.15,0.5 -2.49,-0.01 -3,-1.14 -0.51,-1.13 0,-2.45 1.13,-2.95 1.12,-0.49 2.46,0.02 2.99,1.15z"></path> <path class="fil2" d="M476.63 387.19c0.57,1.1 0.13,2.45 -0.99,3.02 -1.13,0.56 -2.48,0.11 -3.03,-1 -0.55,-1.11 -0.11,-2.46 0.99,-3.01 1.1,-0.55 2.45,-0.11 3.03,0.99z"></path> <path class="fil2" d="M485.29 382.41c0.62,1.07 0.25,2.45 -0.84,3.08 -1.09,0.63 -2.46,0.25 -3.06,-0.83 -0.59,-1.09 -0.22,-2.47 0.85,-3.08 1.06,-0.62 2.43,-0.24 3.05,0.83z"></path> <path class="fil2" d="M493.75 377.28c0.67,1.04 0.37,2.45 -0.68,3.14 -1.04,0.72 -2.45,0.35 -3.1,-0.71 -0.65,-1.06 -0.3,-2.4 0.71,-3.1 1.02,-0.67 2.4,-0.38 3.07,0.67z"></path> <path class="fil2" d="M501.98 371.78c0.74,1.02 0.49,2.43 -0.57,3.11 -1.05,0.7 -2.46,0.43 -3.16,-0.6 -0.7,-1.03 -0.43,-2.41 0.59,-3.09 1.03,-0.66 2.43,-0.41 3.14,0.58z"></path> <path class="fil2" d="M509.85 365.77c0.78,0.97 0.59,2.38 -0.41,3.14 -1,0.77 -2.42,0.58 -3.17,-0.41 -0.74,-0.99 -0.56,-2.39 0.41,-3.14 0.97,-0.74 2.39,-0.56 3.17,0.41z"></path> <path class="fil2" d="M517.39 359.36c0.83,0.92 0.73,2.35 -0.21,3.19 -0.95,0.83 -2.36,0.74 -3.16,-0.21 -0.8,-0.95 -0.71,-2.37 0.21,-3.18 0.91,-0.82 2.33,-0.72 3.16,0.2z"></path> <path class="fil2" d="M524.58 352.58c0.89,0.87 0.89,2.32 0.01,3.22 -0.88,0.91 -2.29,0.91 -3.16,-0.01 -0.84,-0.89 -0.83,-2.33 0.02,-3.21 0.85,-0.88 2.25,-0.88 3.13,0z"></path> <path class="fil2" d="M531.42 345.42c0.93,0.82 1.06,2.3 0.16,3.18 -0.88,0.91 -2.33,0.95 -3.23,0.1 -0.91,-0.85 -0.95,-2.25 -0.1,-3.13 0.88,-0.85 2.24,-0.97 3.17,-0.15z"></path> <path class="fil2" d="M537.73 337.79c0.98,0.76 1.12,2.17 0.32,3.14 -0.81,0.98 -2.23,1.12 -3.19,0.33 -0.95,-0.8 -1.1,-2.2 -0.32,-3.14 0.78,-0.95 2.21,-1.09 3.19,-0.33z"></path> <path class="fil2" d="M543.53 329.78c1.02,0.7 1.27,2.1 0.55,3.14 -0.72,1.04 -2.12,1.28 -3.12,0.55 -1,-0.73 -1.25,-2.14 -0.55,-3.15 0.7,-1 2.09,-1.24 3.12,-0.54z"></path> <path class="fil2" d="M548.87 321.45c1.07,0.64 1.42,2.04 0.8,3.13 -0.63,1.1 -1.99,1.45 -3.06,0.76 -1.02,-0.65 -1.38,-2.05 -0.77,-3.11 0.61,-1.06 1.96,-1.41 3.03,-0.78z"></path> <path class="fil2" d="M553.76 312.85c1.13,0.58 1.55,1.94 0.91,3.03 -0.63,1.09 -2.02,1.49 -3.11,0.89 -1.08,-0.6 -1.47,-1.95 -0.86,-3.01 0.62,-1.04 1.98,-1.46 3.06,-0.91z"></path> <path class="fil2" d="M557.93 303.87c1.14,0.5 1.63,1.83 1.1,2.97 -0.53,1.15 -1.87,1.65 -2.99,1.11 -1.12,-0.53 -1.62,-1.86 -1.1,-2.97 0.51,-1.11 1.85,-1.6 2.99,-1.11z"></path> <path class="fil2" d="M561.59 294.68c1.16,0.43 1.76,1.74 1.33,2.92 -0.43,1.19 -1.71,1.78 -2.87,1.31 -1.15,-0.46 -1.74,-1.77 -1.33,-2.92 0.42,-1.15 1.7,-1.74 2.87,-1.31z"></path> <path class="fil2" d="M564.81 285.33c1.17,0.35 1.92,1.64 1.52,2.84 -0.42,1.19 -1.73,1.83 -2.91,1.43 -1.17,-0.39 -1.79,-1.64 -1.37,-2.79 0.38,-1.16 1.55,-1.85 2.76,-1.48z"></path> <path class="fil2" d="M567.37 275.76c1.21,0.29 1.92,1.52 1.59,2.73 -0.32,1.22 -1.56,1.95 -2.76,1.62 -1.19,-0.33 -1.91,-1.55 -1.59,-2.73 0.32,-1.18 1.55,-1.91 2.76,-1.62z"></path> <path class="fil2" d="M569.54 266.11c1.22,0.23 2,1.42 1.75,2.65 -0.25,1.23 -1.44,2.02 -2.65,1.76 -1.22,-0.26 -2,-1.45 -1.75,-2.65 0.24,-1.21 1.43,-1.99 2.65,-1.76z"></path> <path class="fil2" d="M571.23 256.36c1.23,0.18 2.06,1.33 1.85,2.57 -0.21,1.24 -1.37,2.07 -2.6,1.86 -1.22,-0.2 -2.05,-1.36 -1.84,-2.57 0.2,-1.21 1.37,-2.05 2.59,-1.86z"></path> <path class="fil2" d="M572.51 246.54c1.23,0.14 2.15,1.27 1.98,2.51 -0.17,1.24 -1.31,2.12 -2.54,1.96 -1.23,-0.17 -2.09,-1.29 -1.93,-2.51 0.17,-1.22 1.25,-2.1 2.49,-1.96z"></path> <path class="fil2" d="M573.47 236.69c1.23,0.1 2.16,1.19 2.07,2.44 -0.11,1.25 -1.23,2.16 -2.46,2.04 -1.25,-0.12 -2.12,-1.21 -2.02,-2.44 0.09,-1.22 1.17,-2.14 2.41,-2.04z"></path> <path class="fil2" d="M574.12 226.81c1.24,0.06 2.19,1.13 2.13,2.38 -0.05,1.25 -1.13,2.2 -2.37,2.12 -1.24,-0.09 -2.16,-1.15 -2.11,-2.38 0.05,-1.23 1.11,-2.18 2.35,-2.12z"></path> <path class="fil2" d="M574.47 216.92c1.24,0.03 2.23,1.06 2.2,2.31 -0.02,1.26 -1.05,2.23 -2.29,2.19 -1.24,-0.05 -2.23,-1.08 -2.2,-2.31 0.02,-1.24 1.05,-2.21 2.29,-2.19z"></path> <path class="fil2" d="M574.54 207.02c1.24,-0.01 2.25,1 2.26,2.25 0.01,1.25 -0.99,2.26 -2.23,2.25 -1.24,-0.01 -2.26,-1.01 -2.27,-2.24 -0.01,-1.24 1,-2.25 2.24,-2.26z"></path> <path class="fil2" d="M574.32 197.13c1.24,-0.05 2.29,0.93 2.33,2.18 0.04,1.25 -0.94,2.29 -2.18,2.31 -1.24,0.03 -2.28,-0.95 -2.32,-2.18 -0.04,-1.23 0.93,-2.27 2.17,-2.31z"></path> <path class="fil2" d="M573.83 187.24c1.24,-0.08 2.3,0.87 2.38,2.12 0.08,1.25 -0.87,2.31 -2.11,2.37 -1.24,0.06 -2.3,-0.88 -2.38,-2.11 -0.07,-1.23 0.87,-2.3 2.11,-2.38z"></path> <path class="fil2" d="M573.05 177.37c1.24,-0.11 2.33,0.8 2.44,2.05 0.11,1.24 -0.8,2.34 -2.04,2.44 -1.24,0.09 -2.33,-0.82 -2.44,-2.05 -0.11,-1.23 0.81,-2.32 2.04,-2.44z"></path> <path class="fil2" d="M571.99 167.53c1.23,-0.15 2.34,0.73 2.49,1.98 0.15,1.24 -0.74,2.36 -1.97,2.49 -1.24,0.14 -2.35,-0.75 -2.5,-1.97 -0.14,-1.23 0.75,-2.34 1.98,-2.5z"></path> <path class="fil2" d="M570.62 157.73c1.23,-0.19 2.37,0.66 2.55,1.89 0.18,1.24 -0.66,2.39 -1.89,2.56 -1.23,0.17 -2.37,-0.68 -2.55,-1.9 -0.18,-1.21 0.67,-2.36 1.89,-2.55z"></path> <path class="fil2" d="M568.95 147.97c1.22,-0.23 2.38,0.58 2.6,1.82 0.22,1.23 -0.59,2.4 -1.81,2.61 -1.23,0.21 -2.39,-0.6 -2.61,-1.81 -0.22,-1.21 0.6,-2.38 1.82,-2.62z"></path> <path class="fil2" d="M566.94 138.28c1.21,-0.28 2.41,0.5 2.67,1.72 0.26,1.23 -0.52,2.43 -1.73,2.68 -1.22,0.25 -2.41,-0.52 -2.67,-1.72 -0.25,-1.21 0.52,-2.4 1.73,-2.68z"></path> <path class="fil2" d="M564.59 128.66c1.2,-0.32 2.42,0.41 2.72,1.63 0.3,1.22 -0.43,2.44 -1.64,2.74 -1.2,0.3 -2.42,-0.43 -2.72,-1.62 -0.29,-1.2 0.44,-2.42 1.64,-2.75z"></path> <path class="fil2" d="M561.84 119.16c1.19,-0.38 2.46,0.29 2.79,1.5 0.35,1.21 -0.33,2.47 -1.53,2.81 -1.19,0.35 -2.43,-0.33 -2.77,-1.51 -0.33,-1.18 0.33,-2.44 1.51,-2.8z"></path> <path class="fil2" d="M558.66 109.78c1.15,-0.42 2.5,0.18 2.89,1.37 0.4,1.19 -0.24,2.48 -1.41,2.88 -1.18,0.4 -2.45,-0.22 -2.83,-1.39 -0.38,-1.16 0.17,-2.42 1.35,-2.86z"></path> <path class="fil2" d="M555.02 100.58c1.14,-0.49 2.48,0.05 2.98,1.21 0.49,1.16 -0.11,2.49 -1.26,2.95 -1.17,0.45 -2.42,-0.12 -2.9,-1.25 -0.49,-1.12 0.04,-2.42 1.18,-2.91z"></path> <path class="fil2" d="M550.88 91.59c1.11,-0.56 2.47,-0.09 3.03,1.04 0.56,1.13 0.1,2.47 -1.04,2.99 -1.11,0.52 -2.47,0.05 -3.01,-1.04 -0.55,-1.1 -0.09,-2.44 1.02,-2.99z"></path> <path class="fil2" d="M546.19 82.88c1.07,-0.63 2.45,-0.26 3.07,0.85 0.63,1.1 0.25,2.47 -0.84,3.06 -1.1,0.59 -2.47,0.21 -3.07,-0.85 -0.6,-1.06 -0.22,-2.43 0.84,-3.06z"></path> <path class="fil2" d="M540.9 74.52c1.01,-0.72 2.4,-0.44 3.1,0.62 0.69,1.07 0.41,2.47 -0.64,3.14 -1.05,0.67 -2.43,0.39 -3.1,-0.63 -0.66,-1.02 -0.38,-2.42 0.64,-3.13z"></path> <path class="fil2" d="M534.83 66.7c0.93,-0.8 2.41,-0.7 3.22,0.29 0.77,1.01 0.59,2.45 -0.39,3.21 -0.98,0.75 -2.38,0.58 -3.11,-0.38 -0.76,-0.94 -0.67,-2.3 0.28,-3.12z"></path> <path class="fil2" d="M528.02 59.53c0.85,-0.91 2.29,-0.93 3.21,-0.04 0.92,0.89 0.95,2.29 0.03,3.16 -0.89,0.84 -2.34,0.87 -3.2,0.03 -0.87,-0.83 -0.88,-2.25 -0.04,-3.15z"></path> <path class="fil2" d="M520.47 53.14c0.73,-1.01 2.13,-1.17 3.13,-0.37 1.01,0.8 1.18,2.23 0.38,3.18 -0.79,0.96 -2.2,1.12 -3.13,0.37 -0.94,-0.75 -1.11,-2.18 -0.38,-3.18z"></path> <path class="fil2" d="M512.05 47.95c0.58,-1.1 1.97,-1.51 3.12,-0.92 1.12,0.64 1.44,2.11 0.79,3.15 -0.67,1.06 -1.99,1.34 -3.02,0.75 -1.07,-0.54 -1.46,-1.87 -0.89,-2.98z"></path> <path class="fil2" d="M503 43.99c0.4,-1.18 1.7,-1.76 2.91,-1.3 1.21,0.46 1.79,1.76 1.29,2.9 -0.49,1.13 -1.8,1.72 -2.91,1.29 -1.11,-0.42 -1.69,-1.72 -1.29,-2.89z"></path> <path class="fil2" d="M493.44 41.46c0.22,-1.21 1.44,-2.12 2.68,-1.75 1.26,0.32 2.02,1.55 1.71,2.75 -0.32,1.2 -1.51,1.94 -2.66,1.64 -1.14,-0.35 -1.94,-1.4 -1.73,-2.64z"></path> <path class="fil2" d="M483.61 40.47c0.03,-1.24 1.1,-2.21 2.39,-2.17 1.3,0 2.23,1.17 2.1,2.41 -0.13,1.23 -1.19,2.07 -2.39,2.08 -1.19,-0.04 -2.13,-1.08 -2.1,-2.32z"></path> <path class="fil2" d="M473.73 40.85c-0.16,-1.23 0.76,-2.32 2.05,-2.42 1.29,-0.1 2.38,0.82 2.43,2.06 0.06,1.24 -0.86,2.32 -2.04,2.42 -1.19,0.09 -2.28,-0.83 -2.44,-2.06z"></path> <path class="fil2" d="M464.06 42.87c-0.36,-1.19 0.36,-2.46 1.6,-2.84 1.27,-0.25 2.51,0.53 2.76,1.75 0.25,1.21 -0.5,2.38 -1.66,2.61 -1.14,0.35 -2.35,-0.33 -2.7,-1.52z"></path> <path class="fil2" d="M454.8 46.33c-0.53,-1.12 0,-2.44 1.19,-2.95 1.19,-0.51 2.5,0.02 2.95,1.18 0.43,1.16 -0.1,2.48 -1.19,2.96 -1.1,0.47 -2.42,-0.06 -2.95,-1.19z"></path> <path class="fil2" d="M446.15 51.13c-0.66,-1.03 -0.37,-2.49 0.73,-3.15 1.13,-0.62 2.53,-0.24 3.13,0.84 0.6,1.09 0.24,2.43 -0.81,3.01 -1.03,0.62 -2.36,0.35 -3.05,-0.7z"></path> <path class="fil2" d="M438.16 56.96c-0.79,-0.96 -0.62,-2.38 0.39,-3.17 1,-0.79 2.41,-0.62 3.14,0.38 0.74,1 0.56,2.42 -0.39,3.17 -0.94,0.75 -2.35,0.57 -3.14,-0.38z"></path> <path class="fil2" d="M430.79 63.55c-0.88,-0.88 -0.88,-2.35 0.08,-3.19 0.94,-0.85 2.38,-0.8 3.21,0.13 0.83,0.92 0.78,2.33 -0.12,3.14 -0.92,0.8 -2.3,0.81 -3.17,-0.08z"></path> <path class="fil2" d="M424 70.76c-0.93,-0.82 -1.01,-2.25 -0.17,-3.2 0.82,-0.96 2.28,-1 3.18,-0.15 0.9,0.85 0.94,2.24 0.15,3.17 -0.81,0.92 -2.22,1 -3.16,0.18z"></path> <path class="fil2" d="M417.66 78.36c-0.97,-0.77 -1.12,-2.18 -0.33,-3.16 0.79,-0.99 2.2,-1.14 3.16,-0.34 0.95,0.79 1.1,2.2 0.34,3.16 -0.77,0.95 -2.19,1.1 -3.17,0.34z"></path> <path class="fil2" d="M411.72 86.27c-1.01,-0.73 -1.25,-2.15 -0.49,-3.15 0.75,-1 2.17,-1.21 3.16,-0.47 0.99,0.74 1.2,2.15 0.47,3.13 -0.75,0.98 -2.14,1.21 -3.14,0.49z"></path> <path class="fil2" d="M406.08 94.41c-1.03,-0.69 -1.3,-2.1 -0.6,-3.14 0.68,-1.04 2.12,-1.29 3.13,-0.58 1.03,0.71 1.26,2.08 0.58,3.11 -0.68,1.03 -2.07,1.3 -3.11,0.61z"></path> <path class="fil2" d="M400.67 102.7c-1.05,-0.67 -1.35,-2.06 -0.67,-3.12 0.67,-1.05 2.06,-1.35 3.1,-0.67 1.04,0.68 1.34,2.07 0.67,3.11 -0.66,1.04 -2.05,1.35 -3.1,0.68z"></path> <path class="fil2" d="M395.41 111.08c-1.06,-0.65 -1.38,-2.03 -0.72,-3.09 0.66,-1.06 2.04,-1.39 3.1,-0.73 1.05,0.66 1.37,2.05 0.72,3.1 -0.65,1.05 -2.04,1.37 -3.1,0.72z"></path> <path class="fil2" d="M390.25 119.53c-1.06,-0.64 -1.4,-2.02 -0.75,-3.09 0.65,-1.06 2.04,-1.4 3.09,-0.75 1.06,0.65 1.4,2.03 0.76,3.09 -0.65,1.05 -2.03,1.4 -3.1,0.75z"></path> <path class="fil2" d="M385.13 128c-1.06,-0.64 -1.4,-2.02 -0.76,-3.09 0.65,-1.06 2.03,-1.4 3.09,-0.76 1.06,0.65 1.41,2.03 0.76,3.09 -0.64,1.07 -2.03,1.41 -3.09,0.76z"></path> <path class="fil2" d="M379.97 136.45c-1.05,-0.65 -1.38,-2.03 -0.74,-3.09 0.65,-1.06 2.04,-1.39 3.1,-0.74 1.06,0.64 1.39,2.03 0.74,3.09 -0.65,1.06 -2.04,1.4 -3.1,0.74z"></path> <path class="fil2" d="M374.72 144.84c-1.04,-0.66 -1.35,-2.05 -0.69,-3.1 0.66,-1.05 2.04,-1.36 3.09,-0.7 1.05,0.66 1.37,2.05 0.7,3.1 -0.66,1.06 -2.05,1.38 -3.1,0.7z"></path> <path class="fil2" d="M369.28 153.11c-1.03,-0.7 -1.29,-2.08 -0.6,-3.1 0.67,-1.04 2.06,-1.32 3.1,-0.64 1.04,0.68 1.33,2.08 0.64,3.13 -0.69,1.04 -2.11,1.31 -3.14,0.61z"></path> <path class="fil2" d="M363.58 161.2c-1,-0.74 -1.22,-2.14 -0.5,-3.13 0.72,-0.99 2.14,-1.21 3.15,-0.5 1.02,0.71 1.24,2.11 0.5,3.13 -0.74,1.02 -2.16,1.24 -3.15,0.5z"></path> <path class="fil2" d="M357.52 169.03c-0.94,-0.79 -1.11,-2.21 -0.35,-3.17 0.76,-0.96 2.16,-1.12 3.14,-0.36 0.98,0.76 1.14,2.19 0.36,3.18 -0.78,0.99 -2.18,1.15 -3.15,0.35z"></path> <path class="fil2" d="M350.9 176.38c-0.89,-0.87 -0.92,-2.28 -0.08,-3.15 0.86,-0.85 2.23,-0.95 3.16,-0.12 0.92,0.82 1.03,2.29 0.12,3.19 -0.88,0.92 -2.32,0.95 -3.2,0.08z"></path> <path class="fil2" d="M343.66 183.12c-0.77,-0.94 -0.65,-2.33 0.22,-3.16 0.9,-0.81 2.31,-0.72 3.15,0.19 0.84,0.91 0.76,2.34 -0.2,3.2 -0.93,0.88 -2.38,0.75 -3.17,-0.23z"></path> <path class="fil2" d="M335.56 188.8c-0.62,-1.07 -0.31,-2.46 0.69,-3.09 1.01,-0.63 2.4,-0.32 3.12,0.7 0.72,1.01 0.41,2.39 -0.69,3.08 -1.1,0.7 -2.5,0.39 -3.12,-0.69z"></path> <path class="fil2" d="M326.64 193.06c-0.46,-1.15 0.1,-2.46 1.23,-2.91 1.14,-0.45 2.36,0 2.91,1.14 0.52,1.1 -0.01,2.55 -1.19,3.01 -1.17,0.47 -2.49,-0.09 -2.95,-1.24z"></path> <path class="fil2" d="M317.37 196.52c-0.41,-1.18 0.21,-2.43 1.36,-2.86 1.15,-0.42 2.44,0.17 2.87,1.34 0.44,1.16 -0.17,2.45 -1.35,2.89 -1.17,0.45 -2.47,-0.2 -2.88,-1.37z"></path> <path class="fil2" d="M307.97 199.63c-0.37,-1.18 0.28,-2.45 1.46,-2.83 1.17,-0.37 2.44,0.28 2.83,1.46 0.38,1.18 -0.27,2.44 -1.46,2.83 -1.19,0.38 -2.46,-0.27 -2.83,-1.46z"></path> <path class="fil2" d="M298.49 202.48c-0.34,-1.19 0.34,-2.44 1.53,-2.78 1.19,-0.34 2.43,0.32 2.79,1.51 0.36,1.19 -0.32,2.46 -1.52,2.8 -1.2,0.35 -2.45,-0.34 -2.8,-1.53z"></path> <path class="fil2" d="M288.97 205.17c-0.34,-1.2 0.37,-2.43 1.56,-2.77 1.19,-0.33 2.43,0.37 2.77,1.56 0.34,1.2 -0.36,2.44 -1.56,2.78 -1.2,0.34 -2.44,-0.37 -2.77,-1.57z"></path> <path class="fil2" d="M279.42 207.77c-0.33,-1.2 0.38,-2.43 1.58,-2.76 1.2,-0.32 2.44,0.39 2.76,1.59 0.32,1.19 -0.39,2.43 -1.58,2.75 -1.21,0.33 -2.44,-0.38 -2.76,-1.58z"></path> <path class="fil2" d="M269.86 210.36c-0.33,-1.2 0.38,-2.44 1.58,-2.76 1.2,-0.33 2.44,0.38 2.76,1.58 0.33,1.2 -0.38,2.43 -1.58,2.76 -1.2,0.32 -2.43,-0.38 -2.76,-1.58z"></path> <path class="fil2" d="M260.32 213c-0.34,-1.2 0.36,-2.44 1.56,-2.77 1.2,-0.34 2.44,0.36 2.77,1.56 0.33,1.19 -0.37,2.43 -1.56,2.77 -1.19,0.33 -2.43,-0.37 -2.77,-1.56z"></path> <path class="fil2" d="M250.81 215.77c-0.35,-1.19 0.33,-2.45 1.52,-2.8 1.2,-0.37 2.45,0.32 2.8,1.52 0.34,1.19 -0.34,2.43 -1.52,2.79 -1.19,0.35 -2.44,-0.32 -2.8,-1.51z"></path> <path class="fil2" d="M241.37 218.73c-0.39,-1.18 0.26,-2.47 1.45,-2.84 1.2,-0.37 2.46,0.28 2.84,1.47 0.37,1.18 -0.29,2.44 -1.47,2.81 -1.17,0.36 -2.43,-0.26 -2.82,-1.44z"></path> <path class="fil2" d="M232.01 221.96c-0.43,-1.17 0.19,-2.45 1.37,-2.88 1.18,-0.42 2.47,0.19 2.87,1.36 0.4,1.18 -0.21,2.47 -1.37,2.88 -1.16,0.41 -2.44,-0.2 -2.87,-1.36z"></path> <path class="fil2" d="M222.79 225.55c-0.48,-1.15 0.07,-2.47 1.24,-2.95 1.16,-0.47 2.48,0.11 2.93,1.27 0.45,1.16 -0.12,2.44 -1.26,2.9 -1.13,0.47 -2.43,-0.08 -2.91,-1.22z"></path> <path class="fil2" d="M213.73 229.55c-0.54,-1.13 -0.05,-2.47 1.1,-2.99 1.15,-0.52 2.49,-0.02 3,1.12 0.5,1.13 0,2.46 -1.11,2.96 -1.12,0.5 -2.45,0.02 -2.99,-1.09z"></path> <path class="fil2" d="M204.94 234.1c-0.6,-1.08 -0.2,-2.45 0.91,-3.06 1.11,-0.6 2.48,-0.2 3.05,0.91 0.57,1.1 0.16,2.47 -0.91,3.05 -1.07,0.58 -2.43,0.18 -3.05,-0.9z"></path> <path class="fil2" d="M196.5 239.26c-0.69,-1.03 -0.39,-2.44 0.66,-3.14 1.07,-0.7 2.49,-0.34 3.13,0.71 0.65,1.07 0.31,2.41 -0.7,3.08 -1.01,0.67 -2.39,0.38 -3.09,-0.65z"></path> <path class="fil2" d="M188.51 245.09c-0.77,-0.95 -0.64,-2.43 0.39,-3.17 1.03,-0.76 2.45,-0.57 3.18,0.44 0.74,1 0.54,2.4 -0.43,3.12 -0.99,0.7 -2.35,0.58 -3.14,-0.39z"></path> <path class="fil2" d="M181.11 251.66c-0.88,-0.88 -0.83,-2.3 0.1,-3.17 0.93,-0.88 2.36,-0.83 3.19,0.09 0.82,0.93 0.78,2.35 -0.1,3.18 -0.89,0.82 -2.31,0.78 -3.19,-0.1z"></path> <path class="fil2" d="M174.49 259.01c-0.97,-0.77 -1.09,-2.2 -0.28,-3.19 0.8,-1 2.25,-1.09 3.18,-0.25 0.91,0.83 1,2.22 0.25,3.17 -0.77,0.93 -2.18,1.05 -3.15,0.27z"></path> <path class="fil2" d="M168.72 267.05c-1.04,-0.66 -1.36,-2.09 -0.67,-3.16 0.75,-1.04 2.17,-1.3 3.18,-0.57 1.01,0.72 1.26,2.1 0.55,3.07 -0.64,1.02 -2,1.32 -3.06,0.66z"></path> <path class="fil2" d="M163.87 275.67c-1.12,-0.54 -1.54,-1.89 -0.95,-3.03 0.6,-1.13 1.97,-1.55 3.05,-0.95 1.09,0.6 1.51,1.96 0.95,3.02 -0.57,1.07 -1.93,1.49 -3.05,0.96z"></path> <polygon class="fil3" points="450.42,150.34 423.64,143.17 443.25,123.56 "></polygon> <polygon class="fil4" points="420.71,219.04 417.57,230.75 408.99,222.18 "></polygon> <path class="fil5" d="M239.18 34.34l232.64 0c2.68,0 4.85,2.17 4.85,4.85l0 395.62c0,2.68 -2.17,4.85 -4.85,4.85l-232.64 0c-2.68,0 -4.85,-2.17 -4.85,-4.85l0 -395.62c0,-2.68 2.17,-4.85 4.85,-4.85z"></path> <path class="fil2" d="M239.18 35.79c-1.87,0 -3.39,1.53 -3.39,3.4l0 395.62c0,1.87 1.52,3.4 3.39,3.4l232.64 0c1.87,0 3.39,-1.53 3.39,-3.4l0 -395.62c0,-1.87 -1.52,-3.4 -3.39,-3.4l-232.64 0zm232.64 405.33l-232.64 0c-3.48,0 -6.31,-2.83 -6.31,-6.31l0 -395.62c0,-3.48 2.83,-6.31 6.31,-6.31l232.64 0c3.48,0 6.31,2.83 6.31,6.31l0 395.62c0,3.48 -2.83,6.31 -6.31,6.31z"></path> <polygon class="fil6" points="470.02,433.21 483.22,433.21 483.22,446.4 470.02,446.4 "></polygon> <polygon class="fil6" points="227.78,433.21 240.97,433.21 240.97,446.4 227.78,446.4 "></polygon> <polygon class="fil6" points="470.02,26.14 483.22,26.14 483.22,39.33 470.02,39.33 "></polygon> <polygon class="fil6" points="227.78,26.14 240.97,26.14 240.97,39.33 227.78,39.33 "></polygon> <path class="fil6" d="M354.15 377.92l106.03 0c2.68,0 4.85,2.17 4.85,4.85l0 36.81c0,2.68 -2.17,4.85 -4.85,4.85l-106.03 0c-2.68,0 -4.85,-2.17 -4.85,-4.85l0 -36.81c0,-2.68 2.17,-4.85 4.85,-4.85z"></path> <path class="fil6" d="M445.96 414.52c0,0 -0.66,3.31 0.48,8.44 0.91,4.11 3.73,8.02 3.73,8.02 0,0 -11.68,-2.71 -14.83,-8.02 -3.56,-6 -1.04,-10.44 -1.04,-10.44l11.66 2z"></path> <path class="fil7" d="M319.35 334.02l86.25 0c2.68,0 4.85,2.17 4.85,4.85l0 26.94c0,2.68 -2.17,4.85 -4.85,4.85l-86.25 0c-2.68,0 -4.85,-2.17 -4.85,-4.85l0 -26.94c0,-2.68 2.17,-4.85 4.85,-4.85z"></path> <path class="fil7" d="M330.31 362.86c0,0 0.55,2.6 -0.39,6.66 -0.75,3.23 -3.1,6.31 -3.1,6.31 0,0 9.69,-2.14 12.3,-6.31 2.95,-4.74 0.86,-8.24 0.86,-8.24l-9.67 1.58z"></path> <path class="fil7" d="M415.68 52.5l35.41 0c3.67,0 6.64,2.98 6.64,6.65 0,3.67 -2.97,6.65 -6.64,6.65l-35.41 0c-3.68,0 -6.65,-2.98 -6.65,-6.65 0,-3.67 2.97,-6.65 6.65,-6.65z"></path> <path class="fil7" d="M265.4 52.5l126.8 0c3.67,0 6.64,2.98 6.64,6.65 0,3.67 -2.97,6.65 -6.64,6.65l-126.8 0c-3.67,0 -6.64,-2.98 -6.64,-6.65 0,-3.67 2.97,-6.65 6.64,-6.65z"></path> <path class="fil5" d="M223.26 82.59l169.58 0c4.29,0 7.77,3.48 7.77,7.76l0 150.56c0,4.29 -3.48,7.77 -7.77,7.77l-169.58 0c-4.28,0 -7.76,-3.48 -7.76,-7.77l0 -150.56c0,-4.28 3.48,-7.76 7.76,-7.76z"></path> <path class="fil5" d="M223.26 82.59l169.58 0c4.29,0 7.77,3.48 7.77,7.76l0 150.56c0,4.29 -3.48,7.77 -7.77,7.77l-169.58 0c-4.28,0 -7.76,-3.48 -7.76,-7.77l0 -150.56c0,-4.28 3.48,-7.76 7.76,-7.76z"></path> <path class="fil2" d="M223.26 82.64c-4.25,0 -7.71,3.46 -7.71,7.71l0 150.56c0,4.26 3.46,7.72 7.71,7.72l169.58 0c4.26,0 7.72,-3.46 7.72,-7.72l0 -150.56c0,-4.25 -3.46,-7.71 -7.72,-7.71l-169.58 0zm169.58 166.08l-169.58 0c-4.3,0 -7.8,-3.5 -7.8,-7.81l0 -150.56c0,-4.3 3.5,-7.81 7.8,-7.81l169.58 0c4.31,0 7.82,3.51 7.82,7.81l0 150.56c0,4.31 -3.51,7.81 -7.82,7.81z"></path> <path class="fil2" d="M223.26 84.04c-3.47,0 -6.3,2.83 -6.3,6.31l0 150.56c0,3.48 2.83,6.31 6.3,6.31l169.58 0c3.48,0 6.31,-2.83 6.31,-6.31l0 -150.56c0,-3.48 -2.83,-6.31 -6.31,-6.31l-169.58 0zm169.58 166.09l-169.58 0c-5.08,0 -9.21,-4.13 -9.21,-9.22l0 -150.56c0,-5.08 4.13,-9.22 9.21,-9.22l169.58 0c5.09,0 9.22,4.14 9.22,9.22l0 150.56c0,5.09 -4.13,9.22 -9.22,9.22z"></path> <path class="fil0" d="M389.01 115.01l-92.55 0c-0.81,0 -1.46,-0.65 -1.46,-1.46 0,-0.8 0.65,-1.45 1.46,-1.45l92.55 0c0.8,0 1.46,0.65 1.46,1.45 0,0.81 -0.66,1.46 -1.46,1.46z"></path> <path class="fil0" d="M389.01 123.45l-92.55 0c-0.81,0 -1.46,-0.65 -1.46,-1.46 0,-0.8 0.65,-1.45 1.46,-1.45l92.55 0c0.8,0 1.46,0.65 1.46,1.45 0,0.81 -0.66,1.46 -1.46,1.46z"></path> <path class="fil0" d="M389.01 131.66l-92.55 0c-0.81,0 -1.46,-0.65 -1.46,-1.45 0,-0.81 0.65,-1.46 1.46,-1.46l92.55 0c0.8,0 1.46,0.65 1.46,1.46 0,0.8 -0.66,1.45 -1.46,1.45z"></path> <path class="fil0" d="M389.01 140.1l-92.55 0c-0.81,0 -1.46,-0.65 -1.46,-1.45 0,-0.81 0.65,-1.46 1.46,-1.46l92.55 0c0.8,0 1.46,0.65 1.46,1.46 0,0.8 -0.66,1.45 -1.46,1.45z"></path> <path class="fil0" d="M389.01 154.2l-92.55 0c-0.81,0 -1.46,-0.65 -1.46,-1.45 0,-0.81 0.65,-1.46 1.46,-1.46l92.55 0c0.8,0 1.46,0.65 1.46,1.46 0,0.8 -0.66,1.45 -1.46,1.45z"></path> <path class="fil0" d="M389.01 162.64l-92.55 0c-0.81,0 -1.46,-0.65 -1.46,-1.46 0,-0.8 0.65,-1.45 1.46,-1.45l92.55 0c0.8,0 1.46,0.65 1.46,1.45 0,0.81 -0.66,1.46 -1.46,1.46z"></path> <path class="fil0" d="M389.01 170.86l-92.55 0c-0.81,0 -1.46,-0.65 -1.46,-1.46 0,-0.8 0.65,-1.45 1.46,-1.45l92.55 0c0.8,0 1.46,0.65 1.46,1.45 0,0.81 -0.66,1.46 -1.46,1.46z"></path> <path class="fil0" d="M389.01 179.3l-92.55 0c-0.81,0 -1.46,-0.66 -1.46,-1.46 0,-0.8 0.65,-1.45 1.46,-1.45l92.55 0c0.8,0 1.46,0.65 1.46,1.45 0,0.8 -0.66,1.46 -1.46,1.46z"></path> <path class="fil6" d="M230.15 108.69l51.81 0c2.68,0 4.85,2.17 4.85,4.85l0 62.57c0,2.68 -2.17,4.85 -4.85,4.85l-51.81 0c-2.68,0 -4.85,-2.17 -4.85,-4.85l0 -62.57c0,-2.68 2.17,-4.85 4.85,-4.85z"></path> <path class="fil6" d="M400.6 101.76l-6.94 -1.93 -178.16 0 0 -9.48 0 0c0,-4.28 3.48,-7.76 7.76,-7.76l169.58 0 0 0c4.29,0 7.76,3.48 7.76,7.76l0 11.41z"></path> <path class="fil8" d="M227.48 88.13c1.99,0 3.59,1.61 3.59,3.59 0,1.99 -1.6,3.59 -3.59,3.59 -1.98,0 -3.59,-1.6 -3.59,-3.59 0,-1.98 1.61,-3.59 3.59,-3.59z"></path> <path class="fil8" d="M240.29 88.13c1.98,0 3.59,1.61 3.59,3.59 0,1.99 -1.61,3.59 -3.59,3.59 -1.98,0 -3.59,-1.6 -3.59,-3.59 0,-1.98 1.61,-3.59 3.59,-3.59z"></path> <path class="fil8" d="M253.19 88.13c1.98,0 3.59,1.61 3.59,3.59 0,1.99 -1.61,3.59 -3.59,3.59 -1.98,0 -3.59,-1.6 -3.59,-3.59 0,-1.98 1.61,-3.59 3.59,-3.59z"></path> <path class="fil5" d="M224.29 257.38l287.98 0c4.28,0 7.76,3.48 7.76,7.77l0 54.71c0,4.29 -3.48,7.76 -7.76,7.76l-287.98 0c-4.29,0 -7.76,-3.47 -7.76,-7.76l0 -54.71c0,-4.29 3.47,-7.77 7.76,-7.77z"></path> <path class="fil2" d="M224.29 258.84c-3.48,0 -6.3,2.83 -6.3,6.31l0 54.71c0,3.48 2.82,6.31 6.3,6.31l287.98 0c3.47,0 6.3,-2.83 6.3,-6.31l0 -54.71c0,-3.48 -2.83,-6.31 -6.3,-6.31l-287.98 0zm287.98 70.24l-287.98 0c-5.08,0 -9.22,-4.14 -9.22,-9.22l0 -54.71c0,-5.08 4.14,-9.22 9.22,-9.22l287.98 0c5.08,0 9.21,4.14 9.21,9.22l0 54.71c0,5.08 -4.13,9.22 -9.21,9.22z"></path> <path class="fil6" d="M519 275.34l-303.5 0 0 -10.19 0 0c0,-4.29 3.48,-7.76 7.76,-7.76l287.98 0 0 0c4.29,0 7.76,3.47 7.76,7.76l0 10.19z"></path> <path class="fil2" d="M224.29 258.84c-3.48,0 -6.3,2.83 -6.3,6.31l0 54.71c0,3.48 2.82,6.31 6.3,6.31l287.98 0c3.47,0 6.3,-2.83 6.3,-6.31l0 -54.71c0,-3.48 -2.83,-6.31 -6.3,-6.31l-287.98 0zm287.98 70.24l-287.98 0c-5.08,0 -9.22,-4.14 -9.22,-9.22l0 -54.71c0,-5.08 4.14,-9.22 9.22,-9.22l287.98 0c5.08,0 9.21,4.14 9.21,9.22l0 54.71c0,5.08 -4.13,9.22 -9.21,9.22z"></path> <path class="fil8" d="M227.09 263.51c1.98,0 3.59,1.61 3.59,3.59 0,1.99 -1.61,3.59 -3.59,3.59 -1.98,0 -3.59,-1.6 -3.59,-3.59 0,-1.98 1.61,-3.59 3.59,-3.59z"></path> <path class="fil8" d="M239.89 263.51c1.99,0 3.59,1.61 3.59,3.59 0,1.99 -1.6,3.59 -3.59,3.59 -1.98,0 -3.58,-1.6 -3.58,-3.59 0,-1.98 1.6,-3.59 3.58,-3.59z"></path> <path class="fil8" d="M252.79 263.51c1.99,0 3.6,1.61 3.6,3.59 0,1.99 -1.61,3.59 -3.6,3.59 -1.98,0 -3.59,-1.6 -3.59,-3.59 0,-1.98 1.61,-3.59 3.59,-3.59z"></path> <path class="fil2" d="M229.71 285.08c-1.73,0 -3.13,1.41 -3.13,3.14l0 22.12c0,1.72 1.4,3.13 3.13,3.13l23.67 0c1.73,0 3.14,-1.41 3.14,-3.13l0 -22.12c0,-1.73 -1.41,-3.14 -3.14,-3.14l-23.67 0zm23.67 31.82l-23.67 0c-3.62,0 -6.57,-2.94 -6.57,-6.56l0 -22.12c0,-3.63 2.95,-6.57 6.57,-6.57l23.67 0c3.62,0 6.57,2.94 6.57,6.57l0 22.12c0,3.62 -2.95,6.56 -6.57,6.56z"></path> <path class="fil2" d="M276.76 285.08c-1.73,0 -3.13,1.41 -3.13,3.14l0 22.12c0,1.72 1.4,3.13 3.13,3.13l23.67 0c1.73,0 3.13,-1.41 3.13,-3.13l0 -22.12c0,-1.73 -1.4,-3.14 -3.13,-3.14l-23.67 0zm23.67 31.82l-23.67 0c-3.62,0 -6.57,-2.94 -6.57,-6.56l0 -22.12c0,-3.63 2.95,-6.57 6.57,-6.57l23.67 0c3.62,0 6.57,2.94 6.57,6.57l0 22.12c0,3.62 -2.95,6.56 -6.57,6.56z"></path> <path class="fil2" d="M326.04 285.08c-1.73,0 -3.14,1.41 -3.14,3.14l0 22.12c0,1.72 1.41,3.13 3.14,3.13l23.67 0c1.72,0 3.13,-1.41 3.13,-3.13l0 -22.12c0,-1.73 -1.41,-3.14 -3.13,-3.14l-23.67 0zm23.67 31.82l-23.67 0c-3.62,0 -6.57,-2.94 -6.57,-6.56l0 -22.12c0,-3.63 2.95,-6.57 6.57,-6.57l23.67 0c3.62,0 6.56,2.94 6.56,6.57l0 22.12c0,3.62 -2.94,6.56 -6.56,6.56z"></path> <path class="fil2" d="M375.7 285.08c-1.73,0 -3.13,1.41 -3.13,3.14l0 22.12c0,1.72 1.4,3.13 3.13,3.13l23.67 0c1.73,0 3.13,-1.41 3.13,-3.13l0 -22.12c0,-1.73 -1.4,-3.14 -3.13,-3.14l-23.67 0zm23.67 31.82l-23.67 0c-3.62,0 -6.57,-2.94 -6.57,-6.56l0 -22.12c0,-3.63 2.95,-6.57 6.57,-6.57l23.67 0c3.62,0 6.57,2.94 6.57,6.57l0 22.12c0,3.62 -2.95,6.56 -6.57,6.56z"></path> <path class="fil9" d="M422.75 283.37l23.66 0c2.68,0 4.86,2.17 4.86,4.85l0 22.11c0,2.68 -2.18,4.85 -4.86,4.85l-23.66 0c-2.68,0 -4.85,-2.17 -4.85,-4.85l0 -22.11c0,-2.68 2.17,-4.85 4.85,-4.85z"></path> <path class="fil9" d="M472.02 283.37l23.67 0c2.68,0 4.85,2.17 4.85,4.85l0 22.11c0,2.68 -2.17,4.85 -4.85,4.85l-23.67 0c-2.67,0 -4.85,-2.17 -4.85,-4.85l0 -22.11c0,-2.68 2.18,-4.85 4.85,-4.85z"></path> <path class="fil5" d="M360.8 184.59l-13.66 -50.98c-0.7,-2.59 -3.36,-4.12 -5.95,-3.43l-81.9 21.94c-0.11,0.04 -0.21,0.07 -0.32,0.11l-0.43 0.09c-2.58,0.7 -6.05,4.39 -5.24,8.94l13.66 50.98c0.7,2.59 3.36,4.12 5.95,3.43l81.9 -21.94c1.77,-0.48 3.05,-1.88 3.45,-3.54 2.03,-1 3.14,-3.33 2.54,-5.6z"></path> <path class="fil2" d="M342.46 131.47c-0.3,0 -0.6,0.04 -0.89,0.12l-81.9 21.94c-0.01,0 -0.35,0.11 -0.37,0.12l-0.43 0.1c-1.77,0.47 -4.82,3.4 -4.13,7.26l13.63 50.85c0.48,1.82 2.37,2.89 4.16,2.4l81.9 -21.94c1.2,-0.32 2.12,-1.27 2.42,-2.48 0.1,-0.42 0.38,-0.77 0.77,-0.96 1.44,-0.71 2.18,-2.36 1.77,-3.92l-13.66 -50.97c-0.23,-0.88 -0.8,-1.61 -1.58,-2.07 -0.53,-0.3 -1.1,-0.45 -1.69,-0.45zm-70.81 85.82c-2.78,0 -5.34,-1.86 -6.09,-4.67l-13.66 -50.98c-1.01,-5.59 3.08,-9.86 6.27,-10.72l0.47 -0.11 82.18 -22.03c1.63,-0.44 3.32,-0.22 4.78,0.62 1.46,0.85 2.5,2.21 2.94,3.83l13.66 50.98c0.72,2.68 -0.42,5.5 -2.71,6.96 -0.7,1.93 -2.3,3.42 -4.31,3.96l-81.9 21.95c-0.54,0.14 -1.09,0.21 -1.63,0.21z"></path> <path class="fil3" d="M338.41 136.7l-71.6 19.19c-2.58,0.69 -4.12,3.35 -3.43,5.94l10.27 38.33c0.69,2.59 3.36,4.13 5.94,3.43l71.6 -19.18c2.59,-0.7 4.13,-3.36 3.43,-5.94l-10.27 -38.33c-0.69,-2.59 -3.35,-4.13 -5.94,-3.44z"></path> <path class="fil10" d="M338.41 136.7l-71.6 19.19c-2.58,0.69 -4.12,3.35 -3.43,5.94l10.27 38.33c0.69,2.59 3.36,4.13 5.94,3.43l71.6 -19.18c2.59,-0.7 4.13,-3.36 3.43,-5.94l-10.27 -38.33c-0.69,-2.59 -3.35,-4.13 -5.94,-3.44z"></path> <path class="fil2" d="M338.79 138.11l-71.6 19.19c-0.88,0.23 -1.61,0.79 -2.06,1.58 -0.46,0.78 -0.58,1.7 -0.34,2.58l10.27 38.33c0.23,0.87 0.8,1.6 1.58,2.06 0.79,0.45 1.71,0.57 2.57,0.34l71.61 -19.19c1.81,-0.48 2.88,-2.35 2.4,-4.16l-10.27 -38.33c-0.48,-1.8 -2.34,-2.88 -4.17,-2.4l0.01 0zm-60.46 67.11c-1.09,0 -2.17,-0.29 -3.14,-0.85 -1.46,-0.84 -2.51,-2.2 -2.94,-3.83l-10.27 -38.33c-0.44,-1.63 -0.22,-3.33 0.63,-4.79 0.84,-1.46 2.2,-2.5 3.82,-2.94l71.6 -19.18c3.37,-0.9 6.83,1.1 7.73,4.46l10.27 38.33c0.9,3.36 -1.1,6.83 -4.46,7.72l-71.6 19.19c-0.54,0.14 -1.09,0.22 -1.64,0.22z"></path> <path class="fil8" d="M335.45 143.65l-19.19 5.14c-2.59,0.7 -4.13,3.36 -3.43,5.94l6.59 24.61c0.7,2.59 3.35,4.13 5.94,3.44l19.2 -5.15c2.58,-0.69 4.12,-3.35 3.43,-5.94l-6.6 -24.61c-0.69,-2.59 -3.35,-4.12 -5.94,-3.43z"></path> <path class="fil5" d="M272.38 168.73c-0.65,0 -1.24,-0.43 -1.41,-1.09 -0.21,-0.77 0.26,-1.57 1.03,-1.77l35.62 -9.46c0.79,-0.2 1.58,0.26 1.78,1.04 0.21,0.77 -0.25,1.57 -1.03,1.78l-35.62 9.45c-0.13,0.03 -0.25,0.05 -0.37,0.05z"></path> <path class="fil5" d="M274.42 176.02c-0.64,0 -1.23,-0.43 -1.4,-1.08 -0.21,-0.78 0.25,-1.58 1.03,-1.79l12.49 -3.31c0.79,-0.2 1.57,0.26 1.78,1.04 0.21,0.77 -0.25,1.57 -1.03,1.77l-12.49 3.32c-0.13,0.03 -0.25,0.05 -0.38,0.05z"></path> <path class="fil5" d="M292.45 171.23c-0.64,0 -1.23,-0.43 -1.4,-1.08 -0.21,-0.78 0.25,-1.57 1.03,-1.78l17.5 -4.64c0.78,-0.21 1.57,0.25 1.78,1.03 0.21,0.78 -0.26,1.57 -1.03,1.78l-17.5 4.64c-0.13,0.04 -0.25,0.05 -0.38,0.05z"></path> <path class="fil5" d="M276.11 183.4c-0.65,0 -1.24,-0.43 -1.41,-1.08 -0.21,-0.78 0.26,-1.57 1.03,-1.78l35.63 -9.45c0.79,-0.2 1.57,0.26 1.78,1.03 0.2,0.78 -0.26,1.58 -1.03,1.78l-35.63 9.45c-0.13,0.04 -0.25,0.05 -0.37,0.05z"></path> <path class="fil5" d="M278.09 191.21c-0.64,0 -1.23,-0.43 -1.4,-1.08 -0.21,-0.78 0.25,-1.57 1.03,-1.78l35.62 -9.45c0.79,-0.21 1.58,0.25 1.78,1.03 0.21,0.78 -0.25,1.58 -1.03,1.78l-35.63 9.45c-0.12,0.04 -0.25,0.05 -0.37,0.05z"></path> <path class="fil5" d="M395.12 198.64c-0.06,-0.19 -0.29,-0.35 -0.71,-0.47l-29.4 -8.6c-1.5,-0.44 -4.8,-0.22 -7.39,0.47l-81.9 21.94c-1.4,0.38 -2.3,0.82 -2.6,1.21 -1.27,1.53 0.71,5.85 2.02,6.23l29.41 8.58c1.49,0.44 4.8,0.23 7.39,-0.46l81.93 -21.96c2.37,-0.64 2.4,-5.75 1.25,-6.94z"></path> <path class="fil2" d="M362.87 190.8c-1.39,0 -3.23,0.2 -4.88,0.64l-81.89 21.95c-1.23,0.33 -1.76,0.64 -1.87,0.73 -0.03,0.06 -0.13,0.42 0.02,1.16 0.27,1.33 1.07,2.58 1.4,2.79l29.31 8.53c1.09,0.32 4.07,0.21 6.61,-0.47l81.93 -21.95c0.23,-0.06 0.48,-0.43 0.65,-0.94 0.46,-1.39 0.22,-3.22 -0.09,-3.6 -0.06,-0.07 -29.46,-8.67 -29.46,-8.67 -0.38,-0.11 -0.99,-0.17 -1.73,-0.17zm-56.17 38.89c-0.97,0 -1.87,-0.09 -2.56,-0.29l-29.41 -8.58c-1.62,-0.47 -2.73,-2.85 -3.13,-4.17 -0.57,-1.84 -0.42,-3.4 0.4,-4.39 0.16,-0.21 0.75,-0.99 3.34,-1.68l81.9 -21.95c2.47,-0.66 6.17,-1.04 8.18,-0.45l29.4 8.59c0.85,0.24 1.29,0.66 1.52,1.06 1.07,1.36 1.2,4.09 0.68,5.98 -0.47,1.69 -1.46,2.82 -2.77,3.18l-81.93 21.95c-1.62,0.43 -3.76,0.75 -5.62,0.75z"></path> <path class="fil10" d="M287.6 211.77l69.45 -18.73c2.19,-0.59 4.86,-0.82 5.96,-0.5l21.65 6.17c1.1,0.32 0.21,1.05 -1.98,1.64l-69.44 18.73c-2.2,0.59 -4.87,0.82 -5.96,0.5l-21.66 -6.18c-1.1,-0.31 -0.21,-1.04 1.98,-1.63z"></path> <path class="fil8" d="M454.83 312.49l9.8 -21.34 0.97 16.49 -10.77 4.85zm119.62 116.9c-2.31,-9.94 -10,-41.97 -12.51,-45.11 -2.52,-3.14 -8.08,-3.11 -10.29,-2.81 -2.21,0.29 -8.05,3.68 -8.05,3.68l-5.24 -2.81c0,0 0.09,-4.48 -1.74,-6.11 -1.84,-1.64 -8.5,-5.37 -12.81,-9.9 -4.31,-4.52 -10.57,-12.22 -10.57,-12.22 0,0 2.15,-4.9 -1.07,-16.69 -3.22,-11.78 -11.54,-37.05 -11.54,-37.05 0,0 0.45,-25.95 0.77,-33.08 0.32,-7.14 -0.04,-21.76 -1.65,-32.6 -1.61,-10.85 -3.49,-24.94 -3.49,-24.94 0,0 8.66,-42.04 6.5,-49.57 -2.17,-7.53 -7.5,-13.61 -13.1,-16.49 -5.6,-2.89 -6.03,-3.28 -7.37,-8.54 -1.35,-5.26 -1.75,-9.7 -1.75,-9.7l1.46 -4.85 9.21 -5.34c0,0 6.93,-1.64 7.09,-4.75 0.33,-6.7 -3.2,-10.77 -3.2,-10.77 0,0 1.79,-5.08 -0.1,-8.83 -1.89,-3.74 -1.04,-5.48 -3.49,-5.24 -2.46,0.25 -6.21,-0.19 -6.21,-0.19 0,0 -6.88,-9.65 -12.32,-7.57 -5.45,2.09 -5.53,3.59 -5.53,3.59 0,0 -6.13,-4.83 -8.64,-1.45 -2.51,3.38 -1.74,7.95 -1.74,7.95 0,0 -2,2.17 -1.07,3.79 0.93,1.62 2.13,2.13 2.13,2.13 0,0 -0.17,2.56 -2.71,6.79 -2.55,4.23 -2.29,6.53 -4.27,6.6 -1.98,0.06 -3.13,0.07 -2.62,2.23 0.5,2.16 1.94,3.4 1.94,3.4 0,0 0.09,7.16 4.36,9.4 4.28,2.25 10.94,0.98 12.13,5.83 1.19,4.84 -0.1,9.99 -0.1,9.99 0,0 -12.14,-0.63 -18.52,1.16 -6.39,1.79 -11.07,5.82 -11.07,5.82l-4.75 -2.42 -8.73 -27.85 -0.97 -12.71c0,0 0.8,-5.82 0,-9.89 -0.8,-4.07 -1.58,-7.81 -2.43,-7.18 -0.84,0.63 -1.35,7.18 -1.35,7.18 0,0 -1.86,-7.84 -3.98,-10.09 -2.12,-2.24 -4.45,-4.08 -5.63,-2.72 -1.17,1.37 0.1,10.09 0.1,10.09 0,0 -1.47,-2.55 -4.37,-4.94 -2.89,-2.4 -5.75,-5.55 -7.17,-4.08 -1.43,1.47 -0.92,3.51 1.06,5.73 1.98,2.21 4.17,3.59 4.17,3.59 0,0 2.96,11.14 0.29,12.41 -2.66,1.28 -4.94,1.76 -6.11,0 -1.16,-1.75 -1.64,-5.31 -3.88,-5.53 -2.24,-0.22 -5.34,1.41 -3.1,5.73 2.24,4.31 5.07,7.81 8.92,11.25 3.86,3.45 6.7,3.78 6.7,3.78 0,0 4.49,25.11 5.62,31.53 1.13,6.43 1,7.98 2.24,9.51 1.23,1.53 4.85,5.34 4.85,5.34l-22.71 27.07 -22.21 -3.01 -16.88 -7.28c0,0 -6.28,-5.52 -8.35,-4.66 -2.06,0.87 -4.84,4.17 -6.2,10.68 -1.37,6.5 -2.84,14.91 -1.56,17.27 1.29,2.34 5.54,5.54 5.82,2.81 0.28,-2.73 -0.77,-4.95 -0.77,-4.95l1.94 -3.2c0,0 11.02,6.06 14.84,6.01 3.82,-0.05 5.82,-0.97 5.82,-0.97 0,0 23.1,10.54 32.99,8.83 9.88,-1.71 34.73,-26.58 34.73,-26.58l4.36 42.2 -41.03 114.28c0,0 -0.3,21.19 14.65,24.64 14.94,3.46 19.14,-1.7 24.44,-4.46 5.31,-2.75 30.37,-19.5 30.37,-19.5 0,0 11.22,30.89 24.93,44.63 13.71,13.73 29.14,22.31 32.5,22.7 3.36,0.38 7.47,-3.49 7.47,-3.49l5.63 6.98c0,0 3.92,15.77 8.63,22.7 4.71,6.94 16.84,13.82 21.54,11.16 4.7,-2.66 7.07,-8.4 4.75,-18.34z"></path> <path class="fil6" d="M501.08 301.96c3.26,4.69 7.9,21.89 10.67,29.59 2.76,7.7 4.01,20.72 1.74,21.54 -2.26,0.82 -6.38,-1.17 -11.05,-13.49 -4.68,-12.31 -7.78,-23.09 -9.22,-30.27 -1.44,-7.17 -4.92,-12.27 -0.49,-12.41 4.43,-0.14 5.08,0.36 8.35,5.04z"></path> <path class="fil6" d="M563.07 386.07c1.44,2.78 9.62,34.91 10.77,41.43 1.15,6.52 2.13,13.79 -1.65,14.94 -3.79,1.15 -9.59,1.47 -14.17,-18.44 -4.58,-19.9 -8.11,-32.47 -4.95,-39.29 2.36,-5.05 8.56,-1.41 10,1.36z"></path> <path class="fil7" d="M502.73 254.99c0,0 -5.39,-3.37 -21.35,-6.98 -15.95,-3.62 -29.64,-5.23 -33.66,-4.37 -4.02,0.86 -12.81,2.04 -12.81,2.04l5.44 -16.59 -4.66 -43.46c0,0 -23.21,20.73 -27.36,23.86 -4.14,3.14 -9.65,4.51 -17.36,2.43 -7.72,-2.09 -12.42,-5.44 -12.42,-5.44 0,0 -2.52,-4.5 -0.58,-9.5 1.93,-5.01 4.75,-7.86 4.75,-7.86l14.36 1.16 23.28 -27.65c0,0 -6,-1.05 -7.18,-8.05 -1.17,-7 -4.56,-23.38 -4.56,-23.38 0,0 3.18,-3.73 9.7,-4.56 6.53,-0.83 9.22,1.84 9.22,1.84l6.11 14.26 2.91 1.95c0,0 4.59,-6.17 11.94,-5.83 7.34,0.35 19.01,-0.48 19.01,-0.48l1.55 -1.84c0,0 5.71,-0.03 8.25,0.48 2.54,0.52 5.53,0.87 5.53,0.87 0,0 2.42,3.52 6.69,5.63 4.28,2.11 12.45,6.9 13.39,16.79 0.94,9.89 -6.79,50.93 -6.79,50.93 0,0 1.8,16.15 3.78,24.54 1.99,8.39 2.82,19.21 2.82,19.21z"></path> <path class="fil6" d="M492.77 349.37c0,0 -0.74,-3.95 -0.1,-6.7 0.64,-2.73 2.04,-6.3 2.04,-6.3l-8.73 -28.33c0,0 -4.15,0.42 -5.73,-0.77 -1.58,-1.2 -3.39,-4.37 -3.39,-4.37l-11.26 5.53c0,0 -2.06,6.86 0.2,14.16 2.25,7.3 3.59,9.41 3.59,9.41l2.33 0.2 9.41 3.1 11.64 14.07z"></path> <path class="fil6" d="M546.9 401.95l4.56 28.62c0,0 -3.98,0.09 -5.53,-1.36 -1.54,-1.45 -5.43,-13.19 -5.43,-13.19l-6.11 -9.7 -3.21 -1.36c0,0 -1.32,-10.71 0.78,-15.91 2.1,-5.2 4.76,-8.05 4.76,-8.05l10.57 2.03c0,0 -5.5,0.6 -6.5,7.08 -1,6.49 6.11,11.84 6.11,11.84z"></path> <path class="fil6" d="M465.02 112.82l5.53 5.92 -1.26 4.75 11.45 0.59 0.48 -4.86 7.47 -3.49 4.18 -2.33 5.62 -1.84c0,0 1.18,-3.81 0.3,-6.79 -0.89,-2.98 -2.72,-6.5 -2.72,-6.5 0,0 3.89,-8.53 -2.43,-11.93 -6.32,-3.41 -7.47,-1.17 -7.47,-1.17 0,0 -3.87,-8.12 -9.41,-8.05 -5.53,0.07 -7.47,4.17 -7.47,4.17 0,0 -8.08,-5.93 -11.16,-1.46 -3.07,4.49 -0.87,7.09 -0.87,7.09 0,0 -2.34,3.37 -0.77,4.75 1.56,1.38 4.94,0.97 4.94,0.97 0,0 0.13,15.96 2.14,15.04 2.01,-0.92 2.13,-6.21 2.13,-6.21 0,0 5.42,-1.52 5.53,2.23 0.11,3.76 -6.21,9.12 -6.21,9.12z"></path> <path class="fil8" d="M537.01 380.81l-5.05 -1.36c0,0 -5.64,2.86 -6.88,9.99 -1.26,7.13 -0.98,14.07 -0.98,14.07l6.89 0.87 -3.1 6.02c0,0 -17.31,-8.42 -29.69,-18.92 -19.34,-16.41 -28.81,-49.96 -28.81,-49.96 0,0 -31.29,20.02 -37.64,23.48 -6.36,3.45 -12.39,4.04 -20.28,1.16 -7.89,-2.88 -14.46,-15.62 -12.32,-25.32 2.13,-9.7 34.83,-94.69 34.83,-94.69 0,0 11.29,-4.86 23.77,-2.32 5.22,1.06 17.6,2.14 25.9,3.97 11.51,2.56 18.63,5.82 18.63,5.82l-2.62 46.18c0,0 -5.63,-7.31 -19.12,-0.1 -13.48,7.22 -15.9,7.96 -15.9,7.96l-0.2 -19.5 -10.77 24.64 6.6 -2.81c0,0 -4.46,5.38 -1.84,14.36 2.61,8.98 5.72,10.57 5.72,10.57l6.01 -1.74 9.8 2.52c0,0 13.78,17.66 21.25,19.98 7.46,2.33 12.51,0.2 12.51,0.2 0,0 5.01,8.67 12.32,13.58 7.31,4.9 9.44,6.01 10.38,7.47 0.95,1.45 0.59,3.88 0.59,3.88z"></path> <path class="fil6" d="M533.31 404.04c1.64,0.54 2.38,1.85 3.3,3.11 0.57,0.76 1.09,1.64 1.65,2.42 1.07,1.49 2.76,3.2 3.49,4.75 0.71,1.5 1.14,3.54 1.65,5.24 0.5,1.66 0.75,3.63 1.55,5.04 0.34,0.62 1.21,1.31 1.94,2.04 1.12,1.12 2.11,1.97 3.69,2.23 -1.73,-8.65 -3.49,-17.27 -5.14,-25.99 -2.6,-2.83 -6.04,-7.62 -6.02,-13 0.01,-1.98 0.56,-3.81 1.55,-4.85 0.29,-0.31 0.9,-0.55 0.78,-0.88 -1.39,-0.58 -3.34,-0.6 -4.85,-1.06 -4.79,3.3 -5.95,14.07 -3.59,20.95zm22.6 38.8c2.83,1.87 6.92,3.55 10.67,3.2 4.45,-0.42 6.65,-4.94 6.7,-9.8 0.01,-2.11 -0.58,-4.5 -0.97,-6.69 -2.34,-13.13 -5.1,-25.65 -8.64,-37.83 -0.59,-2.03 -1.16,-4.44 -2.03,-5.72 -1.63,-2.38 -6.97,-3.78 -11.06,-3.49 -1.87,0.13 -3.54,1.12 -4.95,2.03 -1.28,0.83 -2.78,1.87 -3.2,3.4 -0.61,2.19 0.03,5.01 0.68,6.59 0.57,1.4 1.61,2.55 2.42,3.69 0.85,1.19 2.03,2.35 2.52,3.59 0.84,2.11 1.13,5.17 1.56,7.47 1.03,5.46 1.91,9.61 3,15.03 0.36,1.79 1.89,6.43 0.59,7.38 -1.6,1.15 -5.06,-0.67 -6.12,-1.07 1.75,5.17 4.38,9.27 8.83,12.22zm-25.8 -62.66c-3.45,5.34 -5.7,11.89 -5.63,20.76 2.06,0.26 3.38,1.27 5.24,1.74 -1.65,-7.79 0.05,-16.47 3.88,-20.85 -1.18,-0.54 -2.64,-0.79 -3.49,-1.65zm-15.13 -21.05c-0.7,-0.77 -1.32,-1.71 -2.23,-2.23 -4.59,1.72 -10.62,0.68 -13.88,-1.07 -1.86,-1 -3.67,-2.8 -5.33,-4.46 -4.22,-4.22 -7.85,-8.36 -11.64,-12.9 -0.79,-0.95 -1.54,-2.16 -2.33,-2.62 -1.04,-0.61 -2.58,-0.7 -3.59,-1.17 -0.52,3.65 -2.5,5.85 -5.24,7.28 9.91,28.63 25.26,51.83 51.61,64.02 -1.42,-5.67 -0.74,-11.94 0.68,-17.08 1.67,-6.07 4.42,-11.44 8.73,-14.25 -6.35,-4.34 -11.72,-10.01 -16.78,-15.52zm-51.03 -48.89c-0.91,0.61 -2.12,0.94 -2.71,1.65 -1.01,1.21 -1.36,3.2 -1.46,5.04 -0.34,6.28 2.3,13.35 4.85,16.88 1.27,-0.64 2.75,-1.07 4.08,-1.65 -3.74,-4.63 -5.74,-13.49 -4.76,-21.92zm12.03 -6.01c-2.84,1.42 -5.69,2.84 -8.53,4.27 -1.04,4.04 -0.91,8.76 -0.1,12.8 0.78,3.91 2.08,7.77 4.65,9.6 1.83,-0.26 3.37,0.58 5.24,1.17 1.42,0.44 2.98,0.67 3.98,1.25 0.85,0.51 1.76,1.91 2.52,2.82 2.33,2.77 4.54,5.49 6.89,7.96 0.13,0.13 0.28,0.58 0.58,0.38 -0.12,-2.41 0.3,-3.75 0.88,-5.53 0.33,-1.05 1.06,-2.34 1.06,-3.3 0.01,-0.82 -0.62,-2.2 -0.97,-3.3 -2.41,-7.66 -4.98,-15.44 -7.18,-22.89 -4.3,-0.45 -7.31,-2.19 -9.02,-5.23zm7.86 2.03c0.96,0.21 2.49,0.3 3.1,0.78 0.52,0.4 1,2.15 1.36,3.29 2.34,7.57 4.45,14.46 6.79,21.74 0.41,1.26 1.08,2.77 1.07,3.68 -0.02,1.06 -0.77,2.46 -1.16,3.69 -0.41,1.24 -0.96,2.57 -0.98,3.98 -0.02,2.01 0.92,3.69 1.17,5.43 1.61,1.51 2.9,3.18 4.75,4.27 2.41,1.41 11.06,3.32 12.81,0.09 0.83,-1.54 0.25,-4.92 -0.1,-6.98 -2.33,-13.77 -5.85,-26 -9.99,-37.73 -0.72,-2.05 -1.27,-4.15 -2.23,-5.73 -1.57,-2.58 -5.94,-5.99 -10.19,-5.04 -4.08,0.91 -7.53,3.65 -11.54,5.14 1.03,2.24 2.55,2.83 5.14,3.39zm-27.45 4.56c2.46,-1.32 5.16,-2.4 7.47,-3.88 -0.27,-3.87 -0.2,-8.09 -0.49,-11.93 -2.32,5.27 -4.75,10.44 -6.98,15.81zm5.53 -64.89c-4.81,-0.59 -9.83,-1.51 -14.56,-1.36 -4.62,0.15 -8.49,1.46 -12.6,2.33 -9.59,26.01 -19.66,52.05 -28.91,78.18 -1.37,3.87 -2.51,7.69 -3.59,11.74 -1.15,4.3 -1.92,8.27 -0.87,13.19 1.8,8.44 6.27,13.93 15.13,15.52 4.07,0.73 9.78,0.63 13.58,-0.97 3.36,-1.42 6.64,-3.5 9.8,-5.43 9.53,-5.82 18.65,-12.25 27.55,-18.43 -1.05,-0.53 -2.07,-1.28 -2.92,-2.14 -5.07,-5.17 -8.66,-14.86 -7.17,-24.93 -13.08,6.75 -27.33,13.55 -40.55,20.47 -1.27,0.67 -3.53,1.82 -3.59,-0.39 -0.04,-1.51 3.14,-2.59 4.27,-3.2 1.81,-0.97 3.5,-1.61 5.05,-2.42 9.89,-5.18 19.91,-10.15 29.68,-15.13 6.65,-14.89 13.38,-30.2 20.08,-45.11 0.59,-1.31 1.85,-5.92 3.68,-5.72 1.69,0.17 1.02,2.13 0.59,3.1 -3.11,6.99 -5.86,13.35 -8.93,20.18 -0.52,1.15 -1.42,2.53 -1.55,3.39 -0.19,1.2 0.14,2.71 0.19,4.08 0.17,4.32 0.17,8.62 0.39,12.7 5.29,-2.65 11.72,-5.62 17.56,-8.44 2.02,-0.97 4,-2.22 6.4,-2.42 2.76,-0.23 5.42,0.79 7.08,1.74 0.48,0.28 0.97,0.73 1.26,0.59 0.71,-13.95 1.85,-27.96 1.75,-42.39 -10.76,-4.64 -24.93,-7.05 -38.8,-8.73zm-88.56 -57.14c-1.24,-0.35 -2.69,-1.2 -4.08,-1.84 -2.82,-1.29 -5.47,-2.64 -8.25,-3.78 -1.48,-0.61 -3.07,-0.95 -4.36,-1.65 -2.35,-1.28 -4.31,-3.85 -7.28,-4.17 -0.77,-0.08 -1.54,0.93 -2.03,1.45 -0.5,0.54 -1.14,1.1 -1.07,1.56 2.15,-0.66 8.88,-1.04 8.83,1.45 -0.05,2.05 -2.47,1.08 -4.17,0.97 -2.82,-0.19 -5.74,0.32 -6.11,2.13 1.3,-0.56 8.78,-2.25 8.24,0.88 -0.34,1.95 -4.78,0.86 -6.79,1.55 -1.27,0.43 -2.78,1.48 -2.91,2.91 0.44,-0.05 1.08,-0.56 1.65,-0.78 1.72,-0.64 7,-1.62 6.89,0.88 -0.1,2.12 -4.04,1.05 -6.02,1.84 -2.73,1.09 -4.32,4.67 -4.27,8.15 0.04,2.37 1.26,5.72 3.88,4.94 -0.08,-1.5 -1.38,-2.25 -1.45,-3.78 -0.06,-1.31 0.82,-2.22 1.36,-3.3 0.6,-1.2 0.98,-2.24 1.94,-2.32 0.91,-0.08 2.36,1.06 3.3,1.64 1.17,0.73 2.16,1.3 3.1,1.85 3.32,1.9 5.87,4.17 10.38,3.2 -0.19,-0.42 -0.91,-0.75 -0.87,-1.55 0.1,-2.34 2.87,-0.86 4.17,-0.3 2.69,1.18 6.18,2.64 8.34,3.59 -0.77,-6.17 1.16,-11.22 3.69,-14.74 -1.93,-0.45 -3.99,-0.17 -6.11,-0.78zm124.16 42.59c-0.83,-4.86 -1.61,-10.21 -2.33,-15.13 -0.26,-1.76 -0.81,-3.87 -0.68,-5.44 0.22,-2.63 0.95,-5.47 1.46,-8.24 1.5,-8.26 3.01,-16.71 4.26,-24.83 0.87,-5.58 1.34,-12.05 0.39,-17.85 -0.91,-5.55 -3.21,-9.49 -6.98,-12.42 -3.56,-2.76 -7.39,-3.76 -10.97,-6.4 -0.64,-0.48 -1.08,-1.39 -1.84,-1.84 -1.09,-0.66 -2.72,-1.09 -4.36,-1.36 -1.87,-0.31 -5.1,-0.81 -6.89,-0.19 -0.68,0.23 -0.79,0.88 -1.55,1.06 -1.14,0.28 -2.64,0.13 -3.98,0.19 -9.19,0.45 -18.86,0.56 -24.44,4.76 -1.04,0.78 -2.07,1.97 -3.01,3.01 -2.91,3.18 -5.8,6.66 -8.54,9.79 -10.55,12.06 -20.56,23.91 -31.04,36.09 -0.95,1.11 -2.1,2.95 -3.29,2.81 -0.74,-0.09 -1.11,-0.7 -1.17,-1.16 -0.17,-1.39 1.6,-2.14 1.46,-2.82 -1.97,-0.3 -3.42,-0.44 -5.24,-0.68 -1.48,-0.19 -3.94,-0.85 -5.34,-0.58 -2.16,0.43 -3.61,4.49 -4.17,6.41 -0.58,1.99 -1.56,7.36 0,9.11 0.43,0.48 1.65,0.79 2.33,1.07 2.53,1.04 5.02,1.99 7.47,2.71 3.53,1.06 7.11,2.35 11.54,1.46 6.73,-1.35 12.07,-6.98 16.3,-10.86 8.5,-7.81 16.32,-14.97 24.83,-22.7 1.25,-1.14 2.45,-3.08 3.78,-3.01 0.51,0.03 1.33,0.52 1.36,1.36 0.04,1.01 -1.44,2.07 -2.13,2.72 -2.69,2.49 -5.32,4.76 -7.57,7.17 1.4,11.77 2.79,24.79 4.17,36.86 0.21,1.79 0.65,3.91 0.49,5.43 -0.13,1.19 -0.88,2.69 -1.36,3.98 -1.49,3.99 -3.05,7.94 -4.46,11.74 10.41,-3.47 23.09,-0.89 33.85,0.58 11.36,1.55 21.91,3.61 30.75,7.37 -0.29,-7.2 -1.97,-13.52 -3.1,-20.17zm-67.71 -91.28c-0.81,-2.62 -1.45,-4.75 -2.23,-7.27 -0.37,-1.21 -0.58,-2.83 -1.17,-3.69 -1.05,-1.55 -3.94,-1.7 -5.82,-1.56 -4.51,0.35 -8.39,1.69 -10.47,4.56 0.88,5.73 1.82,12.17 2.91,17.95 0.37,1.97 0.62,4.12 1.26,5.73 1.03,2.6 3.51,4.27 5.14,6.2 3.5,-4.23 7.3,-8.43 10.86,-12.51 1.21,-1.38 2.51,-2.69 3.5,-4.17 -2.91,-0.55 -3.16,-2.59 -3.98,-5.24zm-14.94 -42.78c-2.35,0.22 -1.46,-2.4 -1.26,-4.17 0.13,-1.21 0.15,-2.58 0.1,-3.78 -0.15,-3.39 -0.49,-7.87 -3.3,-8.34 -0.02,-0.12 -0.11,-0.06 -0.19,0 0.14,1.73 0.37,3.61 0.68,6.11 0.24,2.04 1.8,6.82 -0.78,6.69 -1.33,-0.07 -1.81,-2.58 -2.23,-3.59 -1.87,-4.44 -5.22,-7.05 -9.02,-9.12 -0.37,2.22 1.26,3.1 2.32,4.17 1.02,1.01 2.78,1.99 3.4,3.3 0.65,1.4 0.76,3.41 1.07,5.14 0.31,1.82 0.79,3.83 0.58,5.63 -0.29,2.41 -2.28,4.63 -4.66,4.85 -3.23,0.29 -6.91,-1.89 -7.08,-5.33 -0.79,-0.54 -1.51,-1.15 -2.81,-1.17 -0.69,3.86 1.06,6.19 2.62,8.34 2.24,3.09 4.72,5.8 8.14,7.66 1.37,0.75 4.56,1.55 5.14,2.82 0.37,0.79 0.34,1.92 0.49,2.91 0.47,3.04 0.98,5.96 1.36,9.02 3.6,-2.67 9.72,-4.76 15.81,-3.4 -0.64,-3.26 -2.5,-6.8 -3.2,-10.57 -0.36,-1.95 -0.38,-4.2 -0.58,-6.4 -0.2,-2.11 -0.7,-4.4 -0.59,-6.4 0.1,-1.66 0.76,-3.36 0.88,-5.15 0.22,-3.34 -0.34,-6.53 -1.46,-9.21 0.1,2.08 -0.03,4.71 -0.19,6.7 -0.13,1.68 0.24,3.49 -1.45,3.49 -2.83,0 -0.64,-6.57 -1.95,-8.25 -0.17,2.75 0.41,7.84 -1.84,8.05zm65.38 21.92c0.48,-0.63 2.13,-1.03 3.1,-1.45 2.33,-1.02 3.91,-2.17 5.63,-3.49 0.87,-0.67 1.75,-1.58 2.62,-1.94 1.66,-0.7 3.3,-0.47 4.27,-1.56 0.82,-0.92 0.97,-2.61 0.97,-3.97 -0.01,-2.14 -0.74,-3.63 -1.46,-5.05 -0.45,-0.9 -1.21,-1.82 -1.26,-2.62 -0.08,-1.29 0.89,-2.47 0.88,-3.97 -0.02,-1.38 -0.67,-3.12 -1.27,-4.56 -1.13,-2.73 -1.97,-3.87 -5.23,-4.08 -1.19,-0.07 -2.46,0.36 -3.5,0 -0.93,-0.32 -1.3,-1.64 -1.94,-2.62 -0.56,-0.86 -1.51,-2.02 -2.13,-2.52 -1.3,-1.03 -3.73,-2.33 -5.72,-2.52 -1.93,-0.18 -2.67,0.86 -3.79,1.84 -0.65,0.57 -1.56,1.71 -2.42,1.75 -0.8,0.04 -1.97,-0.74 -2.72,-1.07 -2.12,-0.92 -5.7,-1.69 -7.28,0.49 -0.57,0.79 -1.27,2.67 -1.06,4.17 0.12,0.89 0.94,1.1 0.97,2.23 0.03,1.43 -1.05,1.72 -1.26,3.3 1.35,0.85 3.86,-0.04 4.75,1.16 0.66,0.9 0.26,4.01 0.39,5.82 0.17,2.28 0.47,4.18 0.68,5.53 0.88,-1.7 1.34,-4.18 3.39,-4.46 1.77,-0.24 3.52,1.21 4.37,2.23 0.75,0.9 1.28,2.1 1.07,3.68 -0.43,3.24 -3.67,5.75 -5.82,7.09 2.2,2.41 5.85,5.27 3.88,10.08 2.43,0.58 5.67,0.34 8.63,0.39 0.65,-1.25 0.53,-2.92 1.26,-3.88zm-6.4 -43.26l1.65 0c5.15,1.06 8.64,3.78 10.86,7.76 2.91,-0.04 5.64,-0.02 7.37,1.45 1.25,1.07 1.96,2.85 2.62,4.47 1.18,2.88 2.29,5.97 0.78,9.12 1.87,3.04 4.12,9.28 1.26,13.48 -0.63,0.92 -1.44,1.33 -2.33,1.75 -0.93,0.43 -1.93,0.5 -3.1,0.96 -0.8,0.32 -1.5,1.21 -2.33,1.85 -2.34,1.79 -5.17,3.25 -8.05,4.36 -1.4,2.74 -0.66,5.81 -0.2,9.7 0.35,2.95 0.55,5.75 1.65,7.57 5.38,3.23 11,5.76 14.75,10.09 3.86,4.47 5.33,11.35 5.33,19.4 0,3.78 -0.58,7.54 -1.16,11.25 -1.39,8.91 -2.94,17.69 -4.56,26.48 -0.32,1.74 -0.89,3.48 -0.97,5.14 -0.09,1.68 0.4,3.58 0.68,5.44 0.78,5.11 1.54,10.78 2.42,15.71 1.24,6.91 2.78,13.6 3.11,21.05 0.34,7.8 -0.31,15.78 -0.68,23.57 -0.26,5.49 -0.52,11.48 -0.87,17.27 -0.12,1.93 -0.57,4.21 -0.3,5.72 0.13,0.71 1.12,1.74 1.56,2.62 1.33,2.7 2.43,6.17 3.39,9.11 3.44,10.53 6.33,21.33 8.54,33.08 0.63,3.38 1.51,7.72 -0.2,10.38 5.06,6.07 10.68,11.82 17.27,16.78 2.95,2.22 6.43,3.97 7.28,8.15 1.78,0.26 3.31,0.48 5.04,0.88 0.6,0.13 1.09,0.39 1.74,0.38 0.84,0 1.49,-0.45 2.24,-0.68 2.39,-0.73 4.95,-0.67 7.66,-0.09 2.86,0.61 6.09,1.71 7.76,4.17 1,1.46 1.53,3.86 2.13,5.91 4.15,14.23 7.63,30.15 10,45.89l0 0.39c-0.63,6.22 -2.97,11.24 -8.45,12.22 -3.09,0.55 -6.15,-0.24 -8.73,-1.17 -7.7,-2.76 -11.81,-8.38 -14.74,-16.1 -1.95,-5.15 -3.56,-10.59 -5.04,-15.61 -0.04,-0.14 -0.05,-0.2 -0.1,-0.3 -0.67,-1.38 -1.89,-2.7 -2.81,-3.98 -1,-1.37 -2.11,-2.6 -2.91,-3.97 -1.06,0.94 -1.75,1.84 -2.91,2.52 -3.07,1.8 -6.11,-0.02 -8.93,-1.36 -5.53,-2.62 -10.39,-5.5 -14.93,-8.73 -18.37,-13.07 -30.56,-34 -38.32,-56.26 -10.12,6.61 -20.54,14.22 -31.43,20.47 -3.74,2.15 -7.64,4.12 -12.9,4.46 -11.88,0.76 -19.5,-3.61 -23.18,-11.35 -1.94,-4.06 -3.36,-9.16 -2.82,-14.35 0.27,-2.54 0.84,-4.94 1.46,-7.28 0.6,-2.26 1.19,-4.53 1.94,-6.79 2.81,-8.51 6.06,-17 9.21,-25.51 9.02,-24.35 18.17,-48.42 27.17,-72.85 0.44,-1.2 1.08,-2.34 1.16,-3.2 0.12,-1.41 -0.31,-3.3 -0.49,-4.95 -1.26,-11.45 -2.69,-23.24 -3.78,-34.43 -1.3,0.67 -2.25,1.85 -3.3,2.81 -3.36,3.08 -6.62,6.11 -9.99,9.12 -4.47,3.99 -8.73,8.48 -14.07,11.45 -3.03,1.68 -6.06,2.73 -9.99,2.71 -3.66,-0.02 -7.13,-1.17 -10.47,-2.23 -4.75,-1.51 -9.24,-3.66 -13.58,-5.53 -1.46,-0.63 -2.97,-1.44 -4.47,-1.94 -0.79,-0.26 -2.3,0.62 -3,0.78 -0.98,0.22 -2.06,0.42 -3.01,0.48 -2.49,0.16 -4,-0.41 -5.82,-1.26 -1.63,-0.76 -3.17,-1.57 -4.65,-2.42 -1.43,-0.83 -2.72,-1.96 -4.37,-2.53 -0.23,0.62 -0.49,1.2 -0.87,1.65 0.24,1.77 1.79,2.75 1.36,4.95 -0.36,1.81 -3.36,2.75 -5.44,2.04 -3.08,-1.05 -4.66,-5.81 -4.07,-9.99 0.17,-1.21 0.73,-2.27 0.97,-3.49 0.21,-1.09 0.26,-2.34 0.48,-3.6 0.44,-2.45 1.04,-4.74 1.56,-6.98 0.29,-1.29 0.29,-2.5 0.77,-3.59 1.02,-2.31 2.98,-4.75 5.04,-5.63 2.14,-0.9 4.44,0.3 6.12,1.27 1.65,0.95 2.99,2.17 4.46,2.91 2.31,1.16 5.41,2.16 8.05,3.39 1.26,0.59 2.57,1.26 3.88,1.84 1.39,0.63 2.81,1.41 4.07,1.75 1.69,0.45 3.65,0.56 5.44,0.78 5.69,0.69 10.88,1.22 16.59,2.03 7.19,-8.12 14.15,-16.5 21.24,-24.73 -2.47,-2.32 -5.33,-4.62 -6.31,-8.34 -0.98,-3.74 -1.63,-8.03 -2.33,-12.32 -1.36,-8.37 -2.77,-17.2 -3.97,-25.42 -5.94,-2 -11.4,-7 -14.55,-12.61 -1.23,-2.18 -2.61,-5.67 -1.55,-8.54 1.24,-3.37 6.67,-1.96 8.14,0.69 0.45,0.8 0.48,2.09 0.97,2.71 0.7,0.87 2.37,1.29 3.5,1.07 2.55,-0.5 1.8,-4.15 1.35,-6.79 -0.27,-1.62 -0.47,-3.65 -0.87,-4.46 -0.24,-0.49 -0.92,-1.07 -1.45,-1.56 -1.45,-1.31 -3.72,-2.91 -4.37,-4.75 -1.28,-3.62 1.11,-6.67 4.46,-5.04 2.25,1.08 4.45,3.05 6.31,4.75 0.13,0.12 0.5,0.92 0.67,0.38 0.17,-0.48 -0.18,-1.58 -0.19,-2.22 -0.03,-2.45 0.79,-3.86 3.01,-3.6 3.61,0.44 6.35,4.14 7.66,6.89 0.7,-0.31 1.07,-1.4 2.33,-1.35 2.57,0.1 3.58,4.86 3.98,7.76 0.26,1.95 0.34,3.71 0.19,5.52 -0.14,1.73 -0.71,3.48 -0.78,5.14 -0.07,1.88 0.38,3.98 0.59,6.02 0.2,2.06 0.17,4.19 0.48,5.92 0.42,2.27 1.44,4.67 2.14,6.98 2.13,7.03 4.34,14.34 6.4,21.05 0.68,0.55 1.75,0.71 2.33,1.36 6.07,-6.64 18.54,-6.87 30.75,-7.37 -0.25,-3.43 0.03,-7.21 -1.65,-9.22 -1.44,-1.71 -4.54,-1.5 -7.28,-1.94 -3.92,-0.62 -6.82,-4.44 -7.57,-7.95 -0.34,-1.6 -1.17,-5.96 1.17,-5.82 1.15,0.07 1.29,1.16 1.36,2.52 0.18,3.65 1.5,6.75 3.88,7.96 1.59,0.81 3.82,0.66 5.53,0.96 1.91,0.34 3.47,0.82 4.65,1.94 2.28,2.16 2.53,6.08 2.82,10.38 3.77,-0.43 7.88,0.02 10.76,1.07 -0.55,-3.13 -0.9,-6.47 -1.26,-9.8 -2.13,0 -4.06,0.05 -6.11,-0.09 -1.75,-0.12 -4.04,-0.07 -4.95,-1.36 -1.16,-1.66 0.43,-3.79 0.2,-5.34 -0.17,-1.11 -1.47,-2.24 -2.33,-3.1 -0.68,-0.68 -2.36,-1.98 -2.52,-3.01 -0.35,-2.22 2.27,-2.98 3.68,-4.17 0.5,-0.42 1.09,-1.15 1.55,-1.84 1.05,-1.56 1.47,-2.83 -0.09,-3.98 -0.49,-0.36 -1.53,-0.73 -1.46,0.39 0.06,0.74 0.38,0.19 0.97,0.58 1.51,0.99 -0.18,2.75 -1.94,2.13 -0.65,1.37 -1.08,3.33 -2.91,3.11 -2.69,-0.33 -3,-9.22 -3,-9.22 0,0 -0.07,-2.11 -0.2,-3.2 -0.46,-0.11 -0.58,0.46 -0.87,0.78 -1.01,1.11 -2.06,2.16 -2.81,3.59 -1.07,2.01 -1.7,4.36 -2.91,5.53 -0.98,0.94 -6.05,3.15 -5.73,0.09 0.18,-1.65 2.62,-1.17 3.69,-2.13 1.56,-3.32 3.37,-6.73 5.63,-9.21 0.27,-0.31 0.84,-0.52 0.77,-0.97 -2.21,-0.3 -3.32,-1.98 -2.52,-4.37 0.19,-0.57 0.78,-1.29 0.78,-1.84 0,-0.75 -0.73,-1.5 -0.78,-2.33 -0.2,-3.46 1.58,-6.58 4.07,-7.76 2.64,-1.25 6.42,-0.88 9.41,0.97 1.65,-1.23 3,-2.76 5.34,-3.3z"></path> <path class="fil6" d="M459.1 110.8c0.78,-0.14 1.75,0.17 1.65,1.46 -0.1,1.36 -3.61,4.57 -5.23,4.46 -0.71,-0.05 -1.34,-0.6 -1.36,-1.36 -0.04,-1.1 1.38,-1.56 2.13,-2.13 1.09,-0.84 1.66,-2.21 2.81,-2.43z"></path> <path class="fil6" d="M458.48 100.88c-0.78,-0.16 -1.55,0.34 -1.72,1.13l-0.47 2.28c-0.17,0.79 0.33,1.55 1.12,1.72 0.79,0.16 1.56,-0.34 1.73,-1.13l0.47 -2.28c0.16,-0.79 -0.34,-1.56 -1.13,-1.72z"></path> <path class="fil11" d="M292.78 377.78c2.3,0.74 6.57,-1.59 10.77,-5.14 4.2,-3.54 3.1,-7.35 3.4,-10.67 0.29,-3.32 5.35,-19.22 2.91,-23.77 -2.45,-4.55 -13.98,-17.45 -21.83,-14.94 -7.85,2.51 -9.23,14.64 -7.08,18.34 2.14,3.7 8.68,8.25 7.47,12.22 -1.22,3.98 -7.45,5.98 -6.99,11.74 0.46,5.76 9.05,11.49 11.35,12.22z"></path> <path class="fil6" d="M280.29 340.02l0 -2.33c0.39,-3.7 1.06,-6.48 2.23,-9.21 1.05,-2.47 2.55,-5.13 5.04,-6.31 3.67,-1.74 7.69,0.77 10.09,2.33 2.23,1.45 3.92,2.74 6.02,4.56 3.73,3.24 7.94,7.02 8.43,12.71 0.29,3.35 -0.76,6.45 -1.55,9.02 -0.78,2.56 -2.06,5.5 -2.33,8.34 -0.25,2.7 0.68,4.95 0.58,7.57 -0.14,3.87 -2.59,5.96 -4.84,7.76 -0.72,0.56 -4.99,4.11 -5.44,1.36 -0.18,-1.14 0.98,-1.76 1.56,-2.14 2.17,-1.44 4.72,-3.15 5.52,-5.63 0.73,-2.21 -0.25,-5.1 -0.29,-7.56 -0.03,-2.33 0.54,-4.06 1.17,-6.11 0.54,-1.78 1.07,-3.58 1.64,-5.63 0.53,-1.87 1.24,-4.22 1.17,-6.21 -0.19,-5.25 -4.56,-8.69 -7.57,-11.35 -1.7,-1.5 -3.12,-2.69 -5.33,-4.17 -1.56,-1.04 -4.37,-2.92 -6.89,-2.42 -2.42,0.48 -3.96,3.95 -4.85,6.4 -1.03,2.85 -1.98,6.49 -1.36,9.6 0.5,2.5 2.44,4.36 3.88,6.11 1.32,1.61 3.17,3.77 3.4,6.12 0.34,3.52 -1.95,5.57 -3.59,7.27 -1.07,1.11 -2.6,2.42 -3.01,3.69 -0.87,2.74 0.39,5.78 1.55,7.27 1.89,2.42 5.12,3.27 7.76,5.04 -0.84,-1.99 -1.49,-3.16 -1.64,-5.14 -0.55,-7.07 4.09,-12.02 5.62,-16.88 1.07,-3.4 0.96,-8.21 -0.48,-11.15 -0.74,-1.5 -1.69,-2.59 -3.21,-4.17 -0.87,-0.92 -3.47,-2.54 -3.2,-3.98 0.11,-0.53 0.41,-0.93 1.07,-1.06 1.46,-0.3 3.6,2.38 4.46,3.29 1.25,1.32 2.64,3.05 3.4,4.56 1.69,3.38 1.94,9.12 0.78,13.1 -1.29,4.38 -4.69,8.11 -5.44,13.29 -0.91,6.32 3.27,9.11 5.14,13.48 1.3,3.04 1.33,6.94 -0.19,9.99 -2.55,5.11 -6.79,7.58 -8.44,13.09 -1.28,4.32 -1.7,9.02 -1.94,14.26 -0.11,2.33 -0.32,3.84 -1.65,3.79 -1.5,-0.06 -1.38,-1.91 -1.26,-4.07 0.31,-5.35 0.93,-10.75 2.14,-14.75 0.92,-3.07 2.19,-5.14 3.87,-7.27 1.66,-2.1 3.55,-3.97 4.76,-6.5 1.9,-3.99 0.01,-8.47 -2.04,-11.06 -0.71,0.07 -0.89,0.54 -1.84,0.39 -0.57,-0.09 -1.87,-0.91 -2.72,-1.36 -4.54,-2.44 -9.6,-5.32 -9.6,-12.12 0,-3.92 1.84,-5.39 3.88,-7.48 1.16,-1.18 2.9,-3.03 2.91,-4.85 0.01,-1.5 -0.93,-2.5 -1.75,-3.58 -2.24,-2.98 -5.13,-5.82 -5.62,-9.9z"></path> <path class="fil11" d="M266.13 373.01c-2.24,-0.04 -15.74,0.32 -17.85,-5.14 -2.11,-5.45 6.78,-15.16 3.69,-19.3 -3.09,-4.15 -6.96,-6.18 -6.99,-12.13 -0.03,-5.95 0.84,-12.05 4.46,-13.19 3.63,-1.15 12.21,0.99 13.88,5.33 1.66,4.35 -0.13,11.05 3.2,15.14 3.33,4.09 8.29,5.91 8.24,11.83 -0.04,5.92 -3.13,12.75 -4.36,14.07 -1.23,1.32 -2.04,3.44 -4.27,3.39z"></path> <path class="fil6" d="M263.33 370.89c-2.21,-1.89 -4.55,-4.07 -4.85,-8.15 -0.18,-2.52 0.3,-5.16 0.77,-7.76 0.42,-2.31 1.38,-5.35 0.97,-7.56 -0.29,-1.59 -1.69,-2.71 -2.71,-3.69 -0.97,-0.93 -2.33,-2.2 -2.91,-3.49 -0.7,-1.55 -1.91,-8.5 0.87,-8.34 2.05,0.11 0.98,5.09 1.65,6.88 0.5,1.35 2.07,2.47 3.2,3.69 1.12,1.2 2.53,2.77 2.81,4.85 0.35,2.47 -0.48,5.23 -0.96,7.76 -0.63,3.28 -1.44,7.24 -0.2,9.99 2.25,4.97 9.87,5.24 10.48,12.12 0.37,4.28 -1.38,7.49 -2.52,10.78 -1.14,3.24 -2.43,6.68 -2.91,10.37 -0.69,5.21 -0.74,13.27 -0.68,18.43 0.02,1.92 0.52,5.2 -1.36,5.24 -1.7,0.03 -1.55,-2.25 -1.55,-4.66 0,-6.43 -0.08,-12.77 0.58,-18.33 0.43,-3.64 1.43,-7.1 2.52,-10.18 1.14,-3.22 2.7,-6.13 3.01,-9.6 0.25,-2.94 -0.78,-4.44 -2.43,-5.83 -0.86,0.35 -1.97,0.38 -3.01,0.39 -4.72,0.05 -11.04,-0.45 -14.16,-2.33 -1.54,-0.92 -2.82,-2.41 -2.91,-4.75 -0.18,-4.83 3.59,-9.01 3.98,-14.16 0.46,-6.07 -5.42,-8.6 -7.28,-12.9 -2.16,-5.03 0.37,-12.63 2.91,-15.62 1.36,-1.59 3.05,-2.56 5.53,-2.52 2.72,0.05 5.49,1.24 7.57,2.61 2.02,1.35 4.08,3.15 5.14,5.05 2.04,3.67 0.75,9.32 2.52,13.09 1.76,3.73 5.92,6.18 7.96,9.9 2.87,5.26 -0.59,11.85 -3.01,15.91 -0.57,0.96 -1.37,2.77 -2.72,2.62 -2.18,-0.25 -0.76,-2.57 0.1,-3.98 0.49,-0.8 1.28,-2.18 1.75,-3.1 1.08,-2.16 2.57,-5.38 2.03,-8.15 -0.38,-1.98 -1.96,-3.82 -3.39,-5.34 -2.85,-3.01 -5.72,-5.67 -6.5,-10.86 -0.46,-3.03 -0.05,-6.46 -1.36,-8.73 -1.01,-1.77 -2.67,-3.03 -4.65,-4.27 -1.68,-1.05 -4.5,-2.44 -6.8,-1.75 -3.05,0.93 -4.94,6.93 -4.94,10.96 0,5.24 4.51,7.33 6.69,11.16 0.86,1.51 1.53,3.41 1.36,5.92 -0.18,2.57 -1.26,5.17 -2.13,7.46 -0.69,1.81 -2.48,5.07 -1.65,7.48 0.59,1.73 3.41,2.43 5.52,2.81 2.55,0.46 5.21,0.44 7.67,0.58z"></path> <path class="fil11" d="M280.53 279.34c5.89,0.18 13.38,4.9 13.28,9.51 -0.09,4.61 -4.12,12.76 -1.16,18.63 2.97,5.87 11.83,13.77 9.51,22.6 -2.33,8.83 -10.24,10.11 -9.41,16.2 0.83,6.09 5.6,10.39 4.36,14.26 -1.23,3.87 -5.8,14.06 -12.51,13.97 -6.71,-0.09 -14.15,-4.96 -18.82,-9.89 -4.67,-4.94 -11.87,-14.5 -4.75,-21.15 7.11,-6.66 15.39,-16.61 9.7,-23.68 -5.7,-7.06 -15.78,-19.75 -7.76,-27.55 8.02,-7.79 11.66,-13.08 17.56,-12.9z"></path> <path class="fil6" d="M284.86 375.91c1.06,4.33 3.05,8.63 2.72,13.57 -0.34,5.02 -2.2,8.69 -4.08,12.42 -1.79,3.57 -3.23,7.32 -3.88,12.61 -0.29,2.39 -0.54,5.24 -0.68,7.57 -0.11,1.85 0.51,6.78 -1.74,6.69 -1.74,-0.06 -1.37,-2.58 -1.26,-4.94 0.27,-5.83 0.84,-12.09 2.23,-16.69 0.97,-3.23 2.53,-6.02 3.88,-8.83 1.42,-2.96 2.8,-5.8 2.71,-9.89 -0.07,-3.52 -1.32,-7.33 -2.23,-10.48 -1.94,-6.73 -4.06,-12.5 -6.01,-19.3 -0.92,-3.19 -2.28,-6.95 -2.04,-10.57 0.35,-5.26 3.89,-9.71 6.5,-13.2 2.05,-2.73 4.46,-6.08 4.46,-10.76 0,-1.18 -0.25,-2.29 -0.68,-3.3 -1.37,-3.26 -3.86,-5.91 -5.72,-8.93 -0.93,-1.5 -1.62,-3.25 -2.23,-5.14 -0.67,-2.07 -1.35,-4.59 -0.97,-6.98 0.24,-1.47 0.84,-2.82 1.65,-4.27 0.45,-0.8 1.6,-3.18 3.2,-2.33 1.36,0.74 0.13,2.53 -0.39,3.4 -1.54,2.61 -2.11,4.97 -0.97,8.73 0.41,1.35 0.99,2.97 1.55,4.07 2.2,4.28 5.98,7.27 7.09,11.84 0.99,4.09 -0.52,9.02 -1.95,11.64 -2.55,4.68 -8.13,9 -8.63,15.13 -0.2,2.4 0.53,4.66 1.07,6.79 1.54,6.14 3.71,12.33 5.43,18.14 2.24,-1.06 4.6,-2.87 6.79,-4.75 1.88,-1.62 4.61,-4.13 4.75,-6.89 0.14,-2.74 -1.44,-4.77 -2.52,-6.69 -1.29,-2.33 -3.17,-4.85 -2.71,-8.44 0.67,-5.34 6.63,-6.69 8.82,-10.58 1.84,-3.26 2.3,-9.64 0.87,-13.58 -0.9,-2.5 -2.78,-4.4 -4.26,-6.4 -3.03,-4.07 -5.57,-8.75 -4.47,-16.29 0.23,-1.57 0.6,-3.02 0.88,-4.47 0.27,-1.4 0.74,-3.31 0.48,-5.04 -0.3,-2.02 -1.44,-3.54 -2.42,-4.75 -1.38,-1.72 -3.35,-3.55 -5.92,-3.88 -3.54,-0.47 -6.76,1.02 -9.02,2.23 -4.89,2.59 -8.54,6.42 -10.96,11.44 -1.24,2.57 -2.41,6.48 -1.84,9.61 0.35,1.97 1.54,3.58 2.61,5.14 1.09,1.57 2.2,3.16 3.21,4.56 2.11,2.95 4.74,6.52 5.04,10.47 0.4,5.22 -1.89,8.7 -4.08,11.93 -2.21,3.28 -5.12,6.15 -6.69,9.32 -1.69,3.42 -1.66,10.11 0.1,13.29 1.4,2.51 5.11,5.46 7.66,7.46 1.08,0.86 2.41,1.84 3.98,3.01 1.1,0.82 3.71,1.95 3.1,3.59 -0.82,2.24 -4.07,-0.71 -4.94,-1.36 -1.67,-1.23 -3.12,-2.41 -4.47,-3.49 -2.82,-2.27 -6.28,-4.86 -7.95,-7.95 -1.99,-3.7 -2.13,-10.63 -0.39,-14.94 1.34,-3.32 4.07,-6.16 6.21,-9.12 2.07,-2.85 4.68,-6.55 4.66,-10.67 -0.03,-4.23 -2.75,-7.43 -5.05,-10.57 -2.39,-3.28 -5.59,-6.66 -6.01,-10.97 -0.37,-3.74 0.8,-7.3 2.03,-9.99 3.49,-7.58 10.8,-14.7 20.08,-15.81 3.6,-0.43 6.91,0.94 9.12,2.91 2.25,2 4.8,5.35 4.95,9.02 0.21,5.09 -2.18,8.83 -1.75,14.46 0.54,7.01 6.69,10.48 8.83,16.29 2.02,5.51 0.98,13 -1.75,16.78 -1.09,1.53 -2.68,2.78 -4.26,4.08 -1.4,1.14 -3.39,2.93 -3.59,5.04 -0.2,2.1 1.54,4.58 2.52,6.31 1.4,2.45 3.5,5.86 2.52,9.7 -0.81,3.2 -3.37,5.52 -5.62,7.47 -2.44,2.11 -4.77,3.81 -7.57,5.53z"></path> <path class="fil5" d="M261.78 401.95l40.84 0c3.48,0 6.31,2.17 6.31,4.85l-6.11 26.48c0,2.68 -2.18,4.86 -4.85,4.86l-31.44 0c-2.68,0 -4.85,-2.18 -4.85,-4.86l-6.21 -26.48c0,-2.68 2.82,-4.85 6.31,-4.85z"></path> <path class="fil2" d="M261.78 403.4c-2.63,0 -4.85,1.56 -4.85,3.4l6.17 26.15c0.04,2.21 1.56,3.73 3.43,3.73l31.44 0c1.87,0 3.39,-1.52 3.39,-3.39l6.15 -26.82c-0.04,-1.51 -2.26,-3.07 -4.89,-3.07l-40.84 0zm36.19 36.19l-31.44 0c-3.47,0 -6.3,-2.83 -6.3,-6.3l-6.17 -26.16c-0.04,-3.81 3.44,-6.63 7.72,-6.63l40.84 0c4.28,0 7.76,2.82 7.76,6.3l-6.14 26.81c0.03,3.15 -2.8,5.98 -6.27,5.98z"></path> <path class="fil5" d="M253.87 394.43l57.82 0c1.02,0 1.85,0.87 1.85,1.94l1.59 11.16c0,1.07 -0.87,1.94 -1.94,1.94l-60.82 0c-1.07,0 -1.94,-0.87 -1.94,-1.94l1.6 -11.16c0,-1.07 0.82,-1.94 1.84,-1.94z"></path> <path class="fil2" d="M253.87 395.89c-0.21,0 -0.38,0.22 -0.38,0.48l-1.62 11.36c0.01,0.07 0.23,0.28 0.5,0.28l60.82 0c0.27,0 0.49,-0.21 0.49,-0.48l-1.58 -10.95c-0.02,-0.47 -0.2,-0.69 -0.41,-0.69l-57.82 0zm59.32 15.03l-60.82 0c-1.87,0 -3.4,-1.52 -3.4,-3.39l1.62 -11.37c-0.02,-1.66 1.46,-3.18 3.28,-3.18l57.82 0c1.82,0 3.3,1.52 3.3,3.39l1.59 10.95c0.01,2.08 -1.51,3.6 -3.39,3.6z"></path> </g> </svg> 